<svg width="21" height="21" viewBox="0 0 21 21" fill="none" xmlns="http://www.w3.org/2000/svg">
<path d="M16.3728 2.42993H4.89035C3.9857 2.42993 3.25 3.16563 3.25 4.07028V13.9124C3.25 14.817 3.9857 15.5527 4.89035 15.5527H7.8315L10.6316 18.3528L13.4317 15.5527H16.3728C17.2775 15.5527 18.0132 14.817 18.0132 13.9124V4.07028C18.0132 3.16563 17.2775 2.42993 16.3728 2.42993ZM16.3728 13.9124H12.7526L10.6316 16.0334L8.5106 13.9124H4.89035V4.07028H16.3728V13.9124Z" fill="#90EED7"/>
<path d="M13.0921 10.6318C13.9981 10.6318 14.7325 9.89737 14.7325 8.99143C14.7325 8.08548 13.9981 7.35107 13.0921 7.35107C12.1862 7.35107 11.4518 8.08548 11.4518 8.99143C11.4518 9.89737 12.1862 10.6318 13.0921 10.6318Z" fill="#90EED7"/>
<path d="M8.17111 10.6318C9.07705 10.6318 9.81146 9.89737 9.81146 8.99143C9.81146 8.08548 9.07705 7.35107 8.17111 7.35107C7.26517 7.35107 6.53076 8.08548 6.53076 8.99143C6.53076 9.89737 7.26517 10.6318 8.17111 10.6318Z" fill="#90EED7"/>
</svg>
