<svg width="23" height="23" viewBox="0 0 23 23" fill="none" xmlns="http://www.w3.org/2000/svg">
<path d="M21.5625 10.7812H17.1997C17.0383 9.51661 16.4616 8.34133 15.5602 7.43984C14.6587 6.53835 13.4834 5.96168 12.2188 5.80031V1.4375H10.7812V5.80031C9.51661 5.96168 8.34133 6.53835 7.43984 7.43984C6.53835 8.34133 5.96168 9.51661 5.80031 10.7812H1.4375V12.2188H5.80031C5.96168 13.4834 6.53835 14.6587 7.43984 15.5602C8.34133 16.4616 9.51661 17.0383 10.7812 17.1997V21.5625H12.2188V17.1997C13.4834 17.0383 14.6587 16.4616 15.5602 15.5602C16.4616 14.6587 17.0383 13.4834 17.1997 12.2188H21.5625V10.7812ZM11.5 15.8125C10.6471 15.8125 9.81329 15.5596 9.1041 15.0857C8.39492 14.6118 7.84217 13.9383 7.51577 13.1503C7.18937 12.3623 7.10396 11.4952 7.27036 10.6587C7.43676 9.82213 7.84749 9.05372 8.4506 8.4506C9.05372 7.84749 9.82213 7.43676 10.6587 7.27036C11.4952 7.10396 12.3623 7.18937 13.1503 7.51577C13.9383 7.84217 14.6118 8.39492 15.0857 9.1041C15.5596 9.81329 15.8125 10.6471 15.8125 11.5C15.8112 12.6433 15.3564 13.7395 14.5479 14.5479C13.7395 15.3564 12.6433 15.8112 11.5 15.8125Z" fill="#B30000"/>
</svg>
