<svg width="25" height="25" viewBox="0 0 25 25" fill="none" xmlns="http://www.w3.org/2000/svg">
<path d="M13.2812 4.6875C11.5531 4.6875 10.1562 6.08438 10.1562 7.8125V8.59375H5.47655C4.70545 8.59375 3.99217 9.01719 3.62889 9.70625L0.98436 14.7383L0.973423 14.7633C0.845717 15.0325 0.780042 15.327 0.781235 15.625V16.4062H1.49217C1.96092 16.4062 2.34374 16.7891 2.34374 17.2578V18.6797C2.34374 19.1484 1.96092 19.5312 1.49217 19.5312H0.866392C0.997547 19.9835 1.27183 20.381 1.64807 20.6641C2.02432 20.9473 2.48223 21.1008 2.95311 21.1016H3.14764C3.09202 20.6097 3.1409 20.1116 3.29108 19.6399C3.44126 19.1682 3.68935 18.7336 4.01913 18.3644C4.3489 17.9953 4.75292 17.6999 5.20474 17.4977C5.65656 17.2954 6.14599 17.1909 6.641 17.1909C7.13601 17.1909 7.62544 17.2954 8.07726 17.4977C8.52908 17.6999 8.9331 17.9953 9.26287 18.3644C9.59265 18.7336 9.84075 19.1682 9.99093 19.6399C10.1411 20.1116 10.19 20.6097 10.1344 21.1016H14.8664C14.8108 20.6097 14.8596 20.1116 15.0098 19.6399C15.16 19.1682 15.4081 18.7336 15.7379 18.3644C16.0677 17.9953 16.4717 17.6999 16.9235 17.4977C17.3753 17.2954 17.8647 17.1909 18.3598 17.1909C18.8548 17.1909 19.3442 17.2954 19.796 17.4977C20.2478 17.6999 20.6519 17.9953 20.9816 18.3644C21.3114 18.7336 21.5595 19.1682 21.7097 19.6399C21.8599 20.1116 21.9087 20.6097 21.8531 21.1016H22.0312C23.0219 21.1016 23.8625 20.4375 24.1297 19.5312H23.8672C23.2344 19.5312 22.6875 19.0469 22.6562 18.4141C22.625 17.7422 23.164 17.1875 23.8281 17.1875H24.2187V7.8125C24.2187 6.08438 22.8219 4.6875 21.0937 4.6875H13.2812ZM11.7187 15.625V7.8125C11.7187 6.94687 12.4156 6.25 13.2812 6.25H21.0937C21.9594 6.25 22.6562 6.94687 22.6562 7.8125V15.625H11.7187ZM10.9375 15.625H2.34374C2.34257 15.5922 2.34546 15.5594 2.35233 15.5273C2.36272 15.489 2.37631 15.4517 2.39295 15.4156L2.69295 14.8438H6.95311C7.42967 14.8438 7.81249 14.4609 7.81249 13.9844V11.8047C7.81249 11.3281 7.42967 10.9453 6.95311 10.9453H4.74217L5.0117 10.4344C5.05645 10.35 5.12342 10.2795 5.20535 10.2305C5.28729 10.1815 5.38107 10.1558 5.47655 10.1562H10.9375V15.625Z" fill="#18806D"/>
<path d="M9.375 20.7031C9.375 21.4283 9.08691 22.1238 8.57412 22.6366C8.06133 23.1494 7.36583 23.4375 6.64062 23.4375C5.91542 23.4375 5.21992 23.1494 4.70713 22.6366C4.19434 22.1238 3.90625 21.4283 3.90625 20.7031C3.90625 19.9779 4.19434 19.2824 4.70713 18.7696C5.21992 18.2568 5.91542 17.9688 6.64062 17.9688C7.36583 17.9688 8.06133 18.2568 8.57412 18.7696C9.08691 19.2824 9.375 19.9779 9.375 20.7031ZM6.64062 21.875C6.95143 21.875 7.2495 21.7515 7.46927 21.5318C7.68904 21.312 7.8125 21.0139 7.8125 20.7031C7.8125 20.3923 7.68904 20.0943 7.46927 19.8745C7.2495 19.6547 6.95143 19.5312 6.64062 19.5312C6.32982 19.5312 6.03175 19.6547 5.81198 19.8745C5.59221 20.0943 5.46875 20.3923 5.46875 20.7031C5.46875 21.0139 5.59221 21.312 5.81198 21.5318C6.03175 21.7515 6.32982 21.875 6.64062 21.875ZM21.0938 20.7031C21.0938 21.4283 20.8057 22.1238 20.2929 22.6366C19.7801 23.1494 19.0846 23.4375 18.3594 23.4375C17.6342 23.4375 16.9387 23.1494 16.4259 22.6366C15.9131 22.1238 15.625 21.4283 15.625 20.7031C15.625 19.9779 15.9131 19.2824 16.4259 18.7696C16.9387 18.2568 17.6342 17.9688 18.3594 17.9688C19.0846 17.9688 19.7801 18.2568 20.2929 18.7696C20.8057 19.2824 21.0938 19.9779 21.0938 20.7031ZM18.3594 21.875C18.6702 21.875 18.9682 21.7515 19.188 21.5318C19.4078 21.312 19.5312 21.0139 19.5312 20.7031C19.5312 20.3923 19.4078 20.0943 19.188 19.8745C18.9682 19.6547 18.6702 19.5312 18.3594 19.5312C18.0486 19.5312 17.7505 19.6547 17.5307 19.8745C17.311 20.0943 17.1875 20.3923 17.1875 20.7031C17.1875 21.0139 17.311 21.312 17.5307 21.5318C17.7505 21.7515 18.0486 21.875 18.3594 21.875Z" fill="#18806D"/>
</svg>
