<svg width="27" height="27" viewBox="0 0 27 27" fill="none" xmlns="http://www.w3.org/2000/svg">
<rect width="27" height="27" rx="7" fill="#046955"/>
<path d="M11.5742 7.32422H10.6445C10.5715 7.32422 10.5117 7.38398 10.5117 7.45703V8.38672C10.5117 8.45977 10.5715 8.51953 10.6445 8.51953H11.5742C11.6473 8.51953 11.707 8.45977 11.707 8.38672V7.45703C11.707 7.38398 11.6473 7.32422 11.5742 7.32422ZM10.8438 18.6797H9.91406C9.84102 18.6797 9.78125 18.7395 9.78125 18.8125V19.7422C9.78125 19.8152 9.84102 19.875 9.91406 19.875H10.8438C10.9168 19.875 10.9766 19.8152 10.9766 19.7422V18.8125C10.9766 18.7395 10.9168 18.6797 10.8438 18.6797ZM19.543 15.293H18.6133C18.5402 15.293 18.4805 15.3527 18.4805 15.4258V16.3555C18.4805 16.4285 18.5402 16.4883 18.6133 16.4883H19.543C19.616 16.4883 19.6758 16.4285 19.6758 16.3555V15.4258C19.6758 15.3527 19.616 15.293 19.543 15.293ZM8.1875 10.7109H7.25781C7.18477 10.7109 7.125 10.7707 7.125 10.8438V11.7734C7.125 11.8465 7.18477 11.9062 7.25781 11.9062H8.1875C8.26055 11.9062 8.32031 11.8465 8.32031 11.7734V10.8438C8.32031 10.7707 8.26055 10.7109 8.1875 10.7109ZM8.1875 13.3672H7.25781C7.18477 13.3672 7.125 13.427 7.125 13.5V14.4297C7.125 14.5027 7.18477 14.5625 7.25781 14.5625H8.1875C8.26055 14.5625 8.32031 14.5027 8.32031 14.4297V13.5C8.32031 13.427 8.26055 13.3672 8.1875 13.3672ZM8.1875 16.0234H7.25781C7.18477 16.0234 7.125 16.0832 7.125 16.1562V17.0859C7.125 17.159 7.18477 17.2188 7.25781 17.2188H8.1875C8.26055 17.2188 8.32031 17.159 8.32031 17.0859V16.1562C8.32031 16.0832 8.26055 16.0234 8.1875 16.0234ZM8.1875 18.6797H7.25781C7.18477 18.6797 7.125 18.7395 7.125 18.8125V19.7422C7.125 19.8152 7.18477 19.875 7.25781 19.875H8.1875C8.26055 19.875 8.32031 19.8152 8.32031 19.7422V18.8125C8.32031 18.7395 8.26055 18.6797 8.1875 18.6797ZM13.5 18.6797H12.5703C12.4973 18.6797 12.4375 18.7395 12.4375 18.8125V19.7422C12.4375 19.8152 12.4973 19.875 12.5703 19.875H13.5C13.573 19.875 13.6328 19.8152 13.6328 19.7422V18.8125C13.6328 18.7395 13.573 18.6797 13.5 18.6797ZM16.1562 18.6797H15.2266C15.1535 18.6797 15.0938 18.7395 15.0938 18.8125V19.7422C15.0938 19.8152 15.1535 19.875 15.2266 19.875H16.1562C16.2293 19.875 16.2891 19.8152 16.2891 19.7422V18.8125C16.2891 18.7395 16.2293 18.6797 16.1562 18.6797ZM18.4805 13.9648C18.4805 14.0379 18.5402 14.0977 18.6133 14.0977H19.543C19.616 14.0977 19.6758 14.0379 19.6758 13.9648V11.1426C19.6758 9.03418 17.9658 7.32422 15.8574 7.32422H13.0352C12.9621 7.32422 12.9023 7.38398 12.9023 7.45703V8.38672C12.9023 8.45977 12.9621 8.51953 13.0352 8.51953H15.8574C17.3067 8.51953 18.4805 9.69326 18.4805 11.1426V13.9648ZM8.91797 6.59375H6.52734C6.4543 6.59375 6.39453 6.65352 6.39453 6.72656V9.11719C6.39453 9.19023 6.4543 9.25 6.52734 9.25H8.91797C8.99102 9.25 9.05078 9.19023 9.05078 9.11719V6.72656C9.05078 6.65352 8.99102 6.59375 8.91797 6.59375ZM8.12109 8.28047C8.12109 8.30205 8.10283 8.32031 8.08125 8.32031H7.36406C7.34248 8.32031 7.32422 8.30205 7.32422 8.28047V7.56328C7.32422 7.5417 7.34248 7.52344 7.36406 7.52344H8.08125C8.10283 7.52344 8.12109 7.5417 8.12109 7.56328V8.28047ZM20.2734 17.9492H17.8828C17.8098 17.9492 17.75 18.009 17.75 18.082V20.4727C17.75 20.5457 17.8098 20.6055 17.8828 20.6055H20.2734C20.3465 20.6055 20.4062 20.5457 20.4062 20.4727V18.082C20.4062 18.009 20.3465 17.9492 20.2734 17.9492ZM19.4766 19.6359C19.4766 19.6575 19.4583 19.6758 19.4367 19.6758H18.7195C18.6979 19.6758 18.6797 19.6575 18.6797 19.6359V18.9188C18.6797 18.8972 18.6979 18.8789 18.7195 18.8789H19.4367C19.4583 18.8789 19.4766 18.8972 19.4766 18.9188V19.6359Z" fill="#90EED7"/>
</svg>
