<svg width="20" height="20" viewBox="0 0 20 20" fill="none" xmlns="http://www.w3.org/2000/svg">
<g clip-path="url(#clip0_173_214)">
<path fill-rule="evenodd" clip-rule="evenodd" d="M10.2106 4.579C10.5176 4.579 10.8122 4.45701 11.0293 4.23986C11.2465 4.02271 11.3684 3.7282 11.3684 3.4211C11.3684 3.11401 11.2465 2.8195 11.0293 2.60235C10.8122 2.3852 10.5176 2.26321 10.2106 2.26321C9.90346 2.26321 9.60894 2.3852 9.3918 2.60235C9.17465 2.8195 9.05266 3.11401 9.05266 3.4211C9.05266 3.7282 9.17465 4.02271 9.3918 4.23986C9.60894 4.45701 9.90346 4.579 10.2106 4.579ZM10.2106 0.526367C10.8779 0.526231 11.5248 0.756663 12.0417 1.17866C12.5587 1.60066 12.9139 2.18831 13.0474 2.84216H16C16.3071 2.84216 16.6016 2.96415 16.8188 3.1813C17.0359 3.39844 17.1579 3.69296 17.1579 4.00005V17.8948C17.1579 18.2019 17.0359 18.4964 16.8188 18.7135C16.6016 18.9307 16.3071 19.0527 16 19.0527H4.42108C4.11399 19.0527 3.81947 18.9307 3.60232 18.7135C3.38518 18.4964 3.26318 18.2019 3.26318 17.8948V4.00005C3.26318 3.69296 3.38518 3.39844 3.60232 3.1813C3.81947 2.96415 4.11399 2.84216 4.42108 2.84216H7.37371C7.50717 2.18831 7.86245 1.60066 8.3794 1.17866C8.89635 0.756663 9.54323 0.526231 10.2106 0.526367ZM9.05266 6.31584H13.1053V4.579H15.4211V17.3158H5.00003V4.579H7.31581V6.31584H9.05266ZM13.14 10.1137C13.2253 10.0342 13.2938 9.93836 13.3412 9.83183C13.3887 9.72531 13.4142 9.61031 13.4163 9.49371C13.4183 9.37711 13.3969 9.26128 13.3532 9.15315C13.3095 9.04502 13.2445 8.94679 13.1621 8.86432C13.0796 8.78186 12.9814 8.71685 12.8732 8.67317C12.7651 8.62949 12.6493 8.60805 12.5327 8.6101C12.4161 8.61216 12.3011 8.63768 12.1946 8.68515C12.088 8.73261 11.9922 8.80105 11.9127 8.88637L9.6316 11.1674L9.08739 10.6232C8.92277 10.4698 8.70503 10.3863 8.48005 10.3903C8.25507 10.3942 8.04042 10.4854 7.88131 10.6445C7.7222 10.8036 7.63106 11.0183 7.62709 11.2432C7.62312 11.4682 7.70663 11.686 7.86003 11.8506L9.01792 13.0085C9.18075 13.1711 9.40147 13.2624 9.6316 13.2624C9.86174 13.2624 10.0825 13.1711 10.2453 13.0085L13.14 10.1137Z" fill="#90EED7"/>
</g>
<defs>
<clipPath id="clip0_173_214">
<rect width="18.5263" height="18.5263" fill="white" transform="translate(0.947388 0.526367)"/>
</clipPath>
</defs>
</svg>
