<?xml version="1.0" encoding="UTF-8"?>
<!DOCTYPE svg PUBLIC "-//W3C//DTD SVG 1.1//EN" "http://www.w3.org/Graphics/SVG/1.1/DTD/svg11.dtd">
<!-- Creator: CorelDRAW X8 -->
<svg xmlns="http://www.w3.org/2000/svg" xml:space="preserve" width="512in" height="512in" version="1.1" style="shape-rendering:geometricPrecision; text-rendering:geometricPrecision; image-rendering:optimizeQuality; fill-rule:evenodd; clip-rule:evenodd"
viewBox="0 0 512000 512000"
 xmlns:xlink="http://www.w3.org/1999/xlink">
 <defs>
  <style type="text/css">
   <![CDATA[
    .fil0 {fill:none}
    .fil1 {fill:#017663}
    .fil3 {fill:#017663;fill-rule:nonzero}
    .fil2 {fill:url(#id0)}
   ]]>
  </style>
  <linearGradient id="id0" gradientUnits="userSpaceOnUse" x1="398331" y1="39806.5" x2="309853" y2="243178">
   <stop offset="0" style="stop-opacity:1; stop-color:#D99F6D"/>
   <stop offset="0.278431" style="stop-opacity:1; stop-color:#E5BF76"/>
   <stop offset="1" style="stop-opacity:1; stop-color:#F2DF80"/>
  </linearGradient>
 </defs>
 <g id="Layer_x0020_1">
  <metadata id="CorelCorpID_0Corel-Layer"/>
  <g id="_2146663254000">
   <rect class="fil0" width="512000" height="512000"/>
   <g>
    <path class="fil1" d="M293334 75107l-167545 2 -19757 79882 125894 0c20470,-26629 40938,-53255 61408,-79884z"/>
    <path class="fil2" d="M330654 209300l75302 0c0,-36154 0,-72308 0,-108462l-4092 -4543 -6 -7 -19363 -21179 -65621 0 -356 0 -61407 79882 32 0 75511 0c0,18103 0,36206 0,54309z"/>
    <path class="fil1" d="M218655 308239l167545 -1 19756 -79883 -125893 0c-20471,26629 -40938,53255 -61408,79884z"/>
    <path class="fil1" d="M181334 174046l-75302 0c0,36154 0,72308 0,108462l4092 4543 6 7 19363 21180 65621 0 357 0 61407 -79883 -33 0 -75511 0c0,-18103 0,-36206 0,-54309z"/>
    <path class="fil3" d="M6514 422045l25109 0c4269,-12 8163,-594 11681,-1758 3505,-1165 6538,-2851 9085,-5059 2535,-2207 4500,-4876 5883,-8018 1383,-3129 2086,-6683 2099,-10637 -13,-3954 -716,-7509 -2099,-10639 -1383,-3141 -3348,-5809 -5883,-8017 -2547,-2208 -5580,-3893 -9085,-5058 -3518,-1164 -7412,-1747 -11681,-1759l-25109 0 0 50945zm17175 -13391l0 -24163 7206 0c2414,0 4537,474 6356,1395 1819,935 3239,2293 4246,4088 1018,1795 1540,4003 1552,6599 -12,2596 -534,4803 -1552,6598 -1007,1796 -2427,3154 -4246,4076 -1819,934 -3942,1407 -6356,1407l-7206 0zm65647 14119c3397,-12 6514,-522 9328,-1528 2815,-1007 5264,-2438 7327,-4282 2062,-1832 3651,-4015 4778,-6538 1129,-2511 1698,-5289 1711,-8321 -13,-3033 -582,-5811 -1711,-8321 -1127,-2511 -2716,-4682 -4778,-6514 -2063,-1831 -4512,-3239 -7327,-4246 -2814,-994 -5931,-1503 -9328,-1516 -3384,13 -6477,522 -9291,1516 -2826,1007 -5265,2415 -7327,4246 -2074,1832 -3663,4003 -4803,6514 -1128,2510 -1711,5288 -1722,8321 11,3032 594,5810 1722,8321 1140,2523 2729,4706 4803,6538 2062,1844 4501,3275 7327,4282 2814,1006 5907,1516 9291,1528zm0 -12809c-1225,0 -2329,-303 -3299,-885 -971,-595 -1735,-1480 -2305,-2645 -570,-1164 -861,-2607 -873,-4330 12,-1722 303,-3166 873,-4318 570,-1153 1334,-2026 2305,-2596 970,-582 2074,-873 3299,-873 1225,0 2329,291 3300,873 970,570 1746,1443 2304,2596 570,1152 861,2596 874,4318 -13,1723 -304,3166 -874,4330 -558,1165 -1334,2050 -2304,2645 -971,582 -2075,885 -3300,885zm53930 -728c-546,364 -1140,643 -1771,825 -631,182 -1286,267 -1941,267 -1007,0 -1820,-340 -2450,-995 -631,-667 -946,-1613 -970,-2863l0 -10043 8150 0 0 -12009 -8150 0 0 -11134 -16448 0 0 33332c11,3663 703,6683 2073,9073 1359,2390 3336,4173 5932,5338 2583,1164 5713,1746 9388,1746 1298,0 2547,-73 3773,-230 1225,-146 2365,-376 3445,-692 1079,-303 2038,-704 2899,-1189l-3930 -11426zm18486 -30203c2025,-13 3772,-388 5252,-1128 1480,-740 2620,-1759 3421,-3057 812,-1298 1213,-2790 1225,-4476 -12,-1589 -413,-2984 -1225,-4197 -801,-1212 -1941,-2159 -3421,-2838 -1480,-679 -3227,-1031 -5252,-1043 -2026,12 -3773,388 -5253,1116 -1480,728 -2620,1722 -3420,2984 -801,1249 -1213,2680 -1225,4269 12,1589 424,3021 1225,4270 800,1262 1940,2244 3420,2984 1480,728 3227,1103 5253,1116zm-8224 43012l16448 0 0 -39810 -16448 0 0 39810zm25544 -14847l21834 0 0 -12372 -21834 0 0 12372zm31441 14847l25109 0c4269,-12 8163,-594 11681,-1758 3505,-1165 6538,-2851 9085,-5059 2535,-2207 4500,-4876 5883,-8018 1383,-3129 2086,-6683 2099,-10637 -13,-3954 -716,-7509 -2099,-10639 -1383,-3141 -3348,-5809 -5883,-8017 -2547,-2208 -5580,-3893 -9085,-5058 -3518,-1164 -7412,-1747 -11681,-1759l-25109 0 0 50945zm17176 -13391l0 -24163 7205 0c2414,0 4537,474 6356,1395 1819,935 3239,2293 4246,4088 1018,1795 1540,4003 1552,6599 -12,2596 -534,4803 -1552,6598 -1007,1796 -2427,3154 -4246,4076 -1819,934 -3942,1407 -6356,1407l-7205 0zm65646 14119c3397,-12 6514,-522 9328,-1528 2815,-1007 5264,-2438 7327,-4282 2062,-1832 3651,-4015 4778,-6538 1129,-2511 1698,-5289 1711,-8321 -13,-3033 -582,-5811 -1711,-8321 -1127,-2511 -2716,-4682 -4778,-6514 -2063,-1831 -4512,-3239 -7327,-4246 -2814,-994 -5931,-1503 -9328,-1516 -3384,13 -6477,522 -9291,1516 -2826,1007 -5265,2415 -7327,4246 -2074,1832 -3663,4003 -4803,6514 -1128,2510 -1711,5288 -1722,8321 11,3032 594,5810 1722,8321 1140,2523 2729,4706 4803,6538 2062,1844 4501,3275 7327,4282 2814,1006 5907,1516 9291,1528zm0 -12809c-1225,0 -2329,-303 -3299,-885 -971,-595 -1735,-1480 -2305,-2645 -570,-1164 -861,-2607 -873,-4330 12,-1722 303,-3166 873,-4318 570,-1153 1334,-2026 2305,-2596 970,-582 2074,-873 3299,-873 1226,0 2329,291 3300,873 970,570 1746,1443 2304,2596 570,1152 861,2596 874,4318 -13,1723 -304,3166 -874,4330 -558,1165 -1334,2050 -2304,2645 -971,582 -2074,885 -3300,885zm53930 -728c-546,364 -1140,643 -1771,825 -631,182 -1286,267 -1941,267 -1007,0 -1820,-340 -2450,-995 -631,-667 -946,-1613 -970,-2863l0 -10043 8150 0 0 -12009 -8150 0 0 -11134 -16448 0 0 33332c11,3663 703,6683 2073,9073 1359,2390 3336,4173 5932,5338 2583,1164 5714,1746 9388,1746 1298,0 2548,-73 3773,-230 1225,-146 2365,-376 3445,-692 1079,-303 2038,-704 2899,-1189l-3930 -11426zm18486 -30203c2025,-13 3772,-388 5252,-1128 1480,-740 2620,-1759 3421,-3057 812,-1298 1213,-2790 1225,-4476 -12,-1589 -413,-2984 -1225,-4197 -801,-1212 -1941,-2159 -3421,-2838 -1480,-679 -3227,-1031 -5252,-1043 -2026,12 -3773,388 -5253,1116 -1480,728 -2620,1722 -3420,2984 -801,1249 -1213,2680 -1225,4269 12,1589 424,3021 1225,4270 800,1262 1940,2244 3420,2984 1480,728 3227,1103 5253,1116zm-8224 43012l16448 0 0 -39810 -16448 0 0 39810zm33332 728c1831,-12 3482,-424 4913,-1225 1443,-801 2583,-1904 3421,-3324 824,-1419 1261,-3056 1273,-4912 -12,-1880 -449,-3518 -1273,-4913 -838,-1383 -1978,-2462 -3421,-3238 -1431,-765 -3082,-1153 -4913,-1165 -1832,12 -3481,400 -4912,1165 -1444,776 -2584,1855 -3421,3238 -824,1395 -1249,3033 -1273,4913 24,1856 449,3493 1273,4912 837,1420 1977,2523 3421,3324 1431,801 3080,1213 4912,1225zm44541 -41266c-2341,0 -4537,389 -6574,1153 -2050,776 -3857,1941 -5435,3505l0 -3930 -15647 0 0 39810 16448 0 0 -18704c13,-1952 304,-3517 862,-4694 557,-1176 1297,-2026 2231,-2547 934,-522 1965,-776 3094,-765 994,-11 1867,218 2595,667 728,462 1286,1189 1686,2196 388,1007 595,2329 595,3978l0 19869 16448 0 0 -22707c-13,-3129 -437,-5810 -1262,-8066 -825,-2256 -1977,-4100 -3445,-5543 -1480,-1444 -3202,-2511 -5179,-3191 -1965,-691 -4113,-1031 -6417,-1031zm54438 728l0 4512c-1225,-1782 -2825,-3093 -4778,-3954 -1954,-861 -4283,-1286 -7012,-1286 -2038,0 -3990,291 -5870,862 -1893,569 -3627,1394 -5240,2474 -1602,1091 -3009,2414 -4210,3978 -1200,1553 -2135,3325 -2802,5314 -667,1976 -1007,4148 -1018,6514 11,2365 351,4536 1018,6525 667,1989 1602,3760 2802,5325 1201,1577 2608,2899 4210,3991 1613,1103 3347,1928 5240,2510 1880,571 3832,862 5870,862 2438,0 4573,-351 6393,-1043 1832,-704 3359,-1759 4597,-3178l0 728c12,1771 -303,3275 -946,4511 -643,1238 -1662,2172 -3057,2815 -1395,643 -3214,970 -5458,970 -1456,0 -2960,-169 -4512,-485 -1565,-315 -3058,-776 -4489,-1358 -1431,-582 -2668,-1286 -3736,-2087l-5531 11208c1662,1092 3530,2001 5629,2741 2086,729 4342,1286 6743,1651 2415,375 4938,558 7569,558 5095,0 9437,-825 13040,-2476 3615,-1661 6380,-4172 8297,-7544 1917,-3372 2887,-7618 2899,-12760l0 -31878 -15648 0zm-7423 24817c-1298,-11 -2462,-278 -3494,-800 -1018,-534 -1831,-1274 -2425,-2232 -607,-958 -910,-2074 -922,-3371 12,-1298 315,-2414 922,-3361 594,-946 1407,-1673 2425,-2183 1032,-521 2196,-788 3494,-788 1298,0 2451,267 3469,788 1019,510 1820,1237 2402,2183 583,947 885,2063 898,3361 -13,1297 -315,2413 -898,3371 -582,958 -1383,1698 -2402,2232 -1018,522 -2171,789 -3469,800z"/>
   </g>
  </g>
 </g>
</svg>
