<svg width="18" height="22" viewBox="0 0 18 22" fill="none" xmlns="http://www.w3.org/2000/svg">
<path d="M8.11004 22C7.99409 21.9998 7.87904 21.9795 7.77004 21.94C7.55979 21.863 7.38146 21.7177 7.2636 21.5273C7.14575 21.3369 7.0952 21.1125 7.12004 20.89L7.89004 13.8H2.00004C1.81837 13.8002 1.64006 13.751 1.48426 13.6576C1.32845 13.5642 1.20104 13.4301 1.11571 13.2697C1.03038 13.1093 0.990352 12.9287 0.999924 12.7473C1.0095 12.5659 1.06831 12.3905 1.17004 12.24L9.06004 0.439975C9.18483 0.255313 9.36773 0.11763 9.5797 0.0487842C9.79167 -0.0200612 10.0206 -0.0161226 10.23 0.059975C10.4314 0.134738 10.6034 0.272359 10.7204 0.452465C10.8375 0.632571 10.8935 0.845586 10.88 1.05998L10.11 8.19998H16C16.1817 8.1997 16.36 8.24892 16.5158 8.34235C16.6716 8.43578 16.799 8.56989 16.8844 8.73027C16.9697 8.89065 17.0097 9.07125 17.0002 9.25266C16.9906 9.43408 16.9318 9.60946 16.83 9.75998L8.94004 21.56C8.84831 21.6957 8.72465 21.8068 8.57993 21.8835C8.4352 21.9602 8.27385 22.0002 8.11004 22Z" fill="#004435" fill-opacity="0.37"/>
</svg>
