<svg width="22" height="21" viewBox="0 0 22 21" fill="none" xmlns="http://www.w3.org/2000/svg">
<path d="M21.1893 5.49203C21.1901 5.35615 21.164 5.22145 21.1126 5.09565C21.0613 4.96986 20.9855 4.85544 20.8899 4.75897L16.5121 0.381225C16.4156 0.285533 16.3012 0.209826 16.1754 0.158445C16.0496 0.107063 15.9149 0.0810188 15.779 0.0818044C15.6432 0.0810188 15.5085 0.107063 15.3827 0.158445C15.2569 0.209826 15.1425 0.285533 15.046 0.381225L12.124 3.30316L0.838974 14.5882C0.743281 14.6847 0.667574 14.7991 0.616193 14.9249C0.564812 15.0507 0.538767 15.1854 0.539553 15.3213V19.699C0.539553 19.9729 0.648332 20.2355 0.841961 20.4291C1.03559 20.6227 1.29821 20.7315 1.57204 20.7315H5.94978C6.09425 20.7394 6.23876 20.7168 6.37394 20.6652C6.50912 20.6136 6.63195 20.5342 6.73447 20.4321L17.9576 9.14703L20.8899 6.27672C20.9841 6.17665 21.0609 6.06148 21.117 5.936C21.1269 5.8537 21.1269 5.7705 21.117 5.6882C21.1218 5.64014 21.1218 5.59172 21.117 5.54365L21.1893 5.49203ZM5.52646 18.6665H2.60452V15.7446L12.8571 5.49203L15.779 8.41397L5.52646 18.6665ZM17.2349 6.95816L14.3129 4.03623L15.779 2.58042L18.6907 5.49203L17.2349 6.95816Z" fill="#004435"/>
</svg>
