<svg width="21" height="21" viewBox="0 0 21 21" fill="none" xmlns="http://www.w3.org/2000/svg">
<path d="M15.5527 2.8289V16.2634L11.7844 13.248C11.4572 12.9863 11.0507 12.8437 10.6316 12.8437C10.2126 12.8437 9.80609 12.9863 9.47889 13.248L5.71059 16.2621V2.8289H15.5527ZM16.1678 1.59863H5.09546C4.93232 1.59863 4.77586 1.66344 4.6605 1.7788C4.54514 1.89416 4.48033 2.05062 4.48033 2.21376V17.5428C4.48049 17.6586 4.51331 17.7719 4.57502 17.8699C4.63672 17.9678 4.7248 18.0463 4.82914 18.0965C4.93348 18.1466 5.04984 18.1662 5.16485 18.1532C5.27986 18.1401 5.38885 18.0949 5.4793 18.0226L10.2478 14.2088C10.3568 14.1218 10.4922 14.0744 10.6316 14.0744C10.7711 14.0744 10.9065 14.1218 11.0155 14.2088L15.784 18.0226C15.8744 18.0949 15.9834 18.1401 16.0984 18.1532C16.2134 18.1662 16.3298 18.1466 16.4341 18.0965C16.5385 18.0463 16.6266 17.9678 16.6883 17.8699C16.75 17.7719 16.7828 17.6586 16.783 17.5428V2.21376C16.783 2.05062 16.7182 1.89416 16.6028 1.7788C16.4874 1.66344 16.331 1.59863 16.1678 1.59863Z" fill="#90EED7"/>
</svg>
