<svg width="23" height="23" viewBox="0 0 23 23" fill="none" xmlns="http://www.w3.org/2000/svg">
<path d="M17.7292 19.1667H5.27083L2.39583 22.0417V5.75C2.39583 4.16875 3.68958 2.875 5.27083 2.875H17.7292C19.3104 2.875 20.6042 4.16875 20.6042 5.75V16.2917C20.6042 17.8729 19.3104 19.1667 17.7292 19.1667Z" fill="#E2FBF5"/>
<path d="M10.5417 9.5835H12.4584V14.8543H10.5417V9.5835Z" fill="#017663"/>
<path d="M11.5 8.14567C12.0293 8.14567 12.4583 7.71661 12.4583 7.18734C12.4583 6.65806 12.0293 6.229 11.5 6.229C10.9707 6.229 10.5417 6.65806 10.5417 7.18734C10.5417 7.71661 10.9707 8.14567 11.5 8.14567Z" fill="#017663"/>
</svg>
