<svg width="20" height="19" viewBox="0 0 20 19" fill="none" xmlns="http://www.w3.org/2000/svg">
<g clip-path="url(#clip0_173_212)">
<path d="M2.61103 2.04918C2.56237 2.01268 2.507 1.98613 2.44808 1.97104C2.38916 1.95594 2.32784 1.9526 2.26763 1.9612C2.20742 1.9698 2.14949 1.99018 2.09716 2.02117C2.04482 2.05216 1.9991 2.09315 1.96261 2.14181C1.92611 2.19047 1.89956 2.24584 1.88447 2.30476C1.86937 2.36368 1.86603 2.42499 1.87463 2.4852C1.88323 2.54541 1.90361 2.60334 1.9346 2.65568C1.96559 2.70802 2.00658 2.75374 2.05524 2.79023L3.90972 4.18156C3.95838 4.21805 4.01375 4.2446 4.07267 4.2597C4.13159 4.27479 4.19291 4.27813 4.25312 4.26953C4.31333 4.26093 4.37126 4.24055 4.42359 4.20956C4.47593 4.17858 4.52165 4.13758 4.55814 4.08892C4.59464 4.04027 4.62119 3.9849 4.63628 3.92598C4.65138 3.86706 4.65472 3.80574 4.64612 3.74553C4.63752 3.68532 4.61714 3.62739 4.58615 3.57505C4.55516 3.52272 4.51417 3.477 4.46551 3.4405L2.61103 2.04918ZM1.87368 6.58998C1.75084 6.58998 1.63304 6.63877 1.54618 6.72563C1.45932 6.81249 1.41052 6.9303 1.41052 7.05313C1.41052 7.17597 1.45932 7.29378 1.54618 7.38064C1.63304 7.4675 1.75084 7.51629 1.87368 7.51629H3.26315C3.38599 7.51629 3.5038 7.4675 3.59066 7.38064C3.67752 7.29378 3.72631 7.17597 3.72631 7.05313C3.72631 6.9303 3.67752 6.81249 3.59066 6.72563C3.5038 6.63877 3.38599 6.58998 3.26315 6.58998H1.87368ZM10.2087 1.9584C13.1256 1.9584 15.5294 4.12042 15.7517 6.91882L15.7647 7.12446L15.7684 7.33288L15.7675 10.6639L16.6243 12.7222C16.6452 12.7722 16.6616 12.824 16.6734 12.8769L16.6882 12.9565L16.6957 13.0779C16.6946 13.2823 16.626 13.4806 16.5005 13.642C16.3751 13.8033 16.1997 13.9186 16.0018 13.9699L15.8944 13.9949L15.7693 14.0042H12.5263L12.5217 14.1524C12.4845 14.7401 12.2248 15.2915 11.7954 15.6945C11.3661 16.0975 10.7994 16.3218 10.2105 16.3218C9.62168 16.3218 9.05495 16.0975 8.62561 15.6945C8.19628 15.2915 7.93659 14.7401 7.89936 14.1524L7.89473 14.0042H4.6517C4.57038 14.0044 4.48939 13.9938 4.41086 13.9727L4.296 13.9329C4.10901 13.8541 3.95308 13.716 3.85216 13.54C3.75125 13.3639 3.71094 13.1596 3.73743 12.9584L3.75688 12.8408L3.79671 12.7222L4.6517 10.6658L4.65263 7.32455L4.65633 7.11705C4.77027 4.22787 7.21945 1.9584 10.2087 1.9584ZM11.6 14.0042H8.82105L8.82753 14.1348C8.8587 14.4556 9.00039 14.7555 9.22835 14.9833C9.45631 15.2111 9.75636 15.3526 10.0771 15.3835L10.2105 15.39C10.5559 15.39 10.8889 15.2613 11.1446 15.0291C11.4003 14.7968 11.5604 14.4777 11.5935 14.1339L11.6 14.0042ZM10.2087 2.88471C7.77894 2.88471 5.79014 4.66602 5.59562 6.94661L5.58265 7.14299L5.57894 7.33288V10.7584L5.54374 10.9363L4.6517 13.0779L15.7286 13.0797L15.7703 13.0779L14.8773 10.9363L14.8421 10.7584V7.34214L14.8384 7.15318C14.7411 4.76884 12.7069 2.88471 10.2087 2.88471ZM18.4584 2.14181C18.3847 2.04354 18.275 1.97857 18.1534 1.9612C18.0318 1.94383 17.9083 1.97547 17.81 2.04918L15.9555 3.4405C15.8573 3.5142 15.7923 3.62393 15.7749 3.74553C15.7576 3.86713 15.7892 3.99065 15.8629 4.08892C15.9366 4.18719 16.0463 4.25216 16.1679 4.26953C16.2895 4.2869 16.4131 4.25526 16.5113 4.18156L18.3658 2.79023C18.4641 2.71653 18.529 2.60681 18.5464 2.4852C18.5638 2.3636 18.5321 2.24008 18.4584 2.14181ZM19.0105 7.05313C19.0105 6.9303 18.9617 6.81249 18.8749 6.72563C18.788 6.63877 18.6702 6.58998 18.5474 6.58998H17.1579C17.0351 6.58998 16.9172 6.63877 16.8304 6.72563C16.7435 6.81249 16.6947 6.9303 16.6947 7.05313C16.6947 7.17597 16.7435 7.29378 16.8304 7.38064C16.9172 7.4675 17.0351 7.51629 17.1579 7.51629H18.5474C18.6702 7.51629 18.788 7.4675 18.8749 7.38064C18.9617 7.29378 19.0105 7.17597 19.0105 7.05313Z" fill="#90EED7"/>
</g>
<defs>
<clipPath id="clip0_173_212">
<rect width="18.5263" height="18.5263" fill="white" transform="translate(0.947388 0.105469)"/>
</clipPath>
</defs>
</svg>
