<svg width="23" height="23" viewBox="0 0 23 23" fill="none" xmlns="http://www.w3.org/2000/svg">
<path d="M12.2558 1.09229C11.5851 1.1063 11.1031 1.2381 10.7838 1.4717L6.41931 3.81419L3.98876 7.11658C3.47787 7.90523 3.84164 9.43347 5.44059 8.45404L7.18806 6.14725C9.41061 4.2286 13.9481 5.11261 11.7964 8.95896C10.7394 11.1863 11.2368 12.2737 12.5942 12.7302L13.2147 10.6466C14.2906 8.22871 16.2919 7.79364 16.2103 5.84426L21.0305 6.19128L20.9916 1.15801L12.2558 1.09229ZM9.82596 5.73442C9.04387 5.72095 8.27683 6.04429 7.71822 6.51494L5.96429 8.82078C6.44554 9.20288 6.92621 8.99862 7.40741 8.53494C7.97459 8.82217 8.41209 8.37673 8.77146 7.4884C8.92047 6.88245 9.14027 6.45353 9.826 5.73442H9.82596ZM8.36074 9.7021C8.27947 9.70464 8.19954 9.72351 8.12571 9.75758L2.32342 12.4309C2.01867 12.5715 1.88485 12.9341 2.02545 13.2391L5.85594 21.5533C5.99664 21.858 6.35929 21.9925 6.66454 21.8513L12.4662 19.1783C12.7715 19.0374 12.9054 18.6752 12.7648 18.3697L8.93363 10.0561C8.82838 9.82712 8.59793 9.69478 8.3607 9.7021H8.36074ZM7.02355 11.9509C7.37367 11.956 7.69347 12.0431 7.97104 12.2135C8.45431 12.5102 8.80794 13.1538 8.85349 13.8197C8.88484 14.2772 8.77658 14.621 8.28959 15.6109C8.11533 15.9651 8.03649 16.2968 8.06174 16.5702C8.08241 16.7936 8.09705 16.8332 8.22521 17.0124L8.36604 17.2091L8.28725 17.2532C8.2439 17.2773 7.96844 17.3924 7.6751 17.5089C7.36433 17.6322 7.12184 17.7109 7.09408 17.6973C7.06789 17.6844 6.98842 17.5796 6.91749 17.4642C6.57945 16.9149 6.59293 16.2275 6.95693 15.4595C7.25589 14.8288 7.33742 14.5626 7.31415 14.2927C7.27754 13.8686 7.01124 13.5524 6.64778 13.5013C6.37731 13.4632 6.16855 13.5261 5.79822 13.7575C5.42546 13.9903 5.17196 14.2385 4.94223 14.5955C4.86137 14.7212 4.78918 14.8225 4.78186 14.8208C4.77449 14.819 4.63784 14.4948 4.47828 14.1004L4.18808 13.3831L4.33318 13.2184C4.59413 12.922 4.86137 12.7168 5.33161 12.4518C5.93536 12.1116 6.51185 11.9436 7.02355 11.9509V11.9509ZM8.51981 17.9277C8.81014 17.9333 9.06696 18.0721 9.22508 18.3303C9.41807 18.6454 9.41308 18.9519 9.21008 19.2625C9.08026 19.4611 8.80789 19.6359 8.53445 19.6962C7.8547 19.846 7.27493 19.2765 7.46864 18.6492C7.55026 18.3848 7.70785 18.2028 7.97504 18.0643C8.1594 17.9688 8.34565 17.9243 8.51981 17.9277Z" fill="#004435"/>
</svg>
