<svg width="26" height="26" viewBox="0 0 26 26" fill="none" xmlns="http://www.w3.org/2000/svg">
<path fill-rule="evenodd" clip-rule="evenodd" d="M5.19998 5.2002C4.51041 5.2002 3.84909 5.47412 3.3615 5.96172C2.8739 6.44931 2.59998 7.11063 2.59998 7.8002V13.0002C2.59998 13.6898 2.8739 14.3511 3.3615 14.8387C3.84909 15.3263 4.51041 15.6002 5.19998 15.6002V7.8002H18.2C18.2 7.11063 17.926 6.44931 17.4385 5.96172C16.9509 5.47412 16.2895 5.2002 15.6 5.2002H5.19998ZM7.79998 13.0002C7.79998 12.3106 8.0739 11.6493 8.5615 11.1617C9.04909 10.6741 9.71041 10.4002 10.4 10.4002H20.8C21.4895 10.4002 22.1509 10.6741 22.6385 11.1617C23.126 11.6493 23.4 12.3106 23.4 13.0002V18.2002C23.4 18.8898 23.126 19.5511 22.6385 20.0387C22.1509 20.5263 21.4895 20.8002 20.8 20.8002H10.4C9.71041 20.8002 9.04909 20.5263 8.5615 20.0387C8.0739 19.5511 7.79998 18.8898 7.79998 18.2002V13.0002ZM15.6 18.2002C16.2895 18.2002 16.9509 17.9263 17.4385 17.4387C17.926 16.9511 18.2 16.2898 18.2 15.6002C18.2 14.9106 17.926 14.2493 17.4385 13.7617C16.9509 13.2741 16.2895 13.0002 15.6 13.0002C14.9104 13.0002 14.2491 13.2741 13.7615 13.7617C13.2739 14.2493 13 14.9106 13 15.6002C13 16.2898 13.2739 16.9511 13.7615 17.4387C14.2491 17.9263 14.9104 18.2002 15.6 18.2002Z" fill="#F4FEFB"/>
</svg>
