<svg width="24" height="24" viewBox="0 0 24 24" fill="none" xmlns="http://www.w3.org/2000/svg">
<path d="M9 4V5.38C8.17 5.05 7.28 4.88 6.39 4.88C4.6 4.88 2.81 5.56 1.44 6.93L4.77 10.26H5.88V11.37C6.74 12.23 7.86 12.68 8.99 12.73V15H6V18C6 19.1 6.9 20 8 20H18C19.66 20 21 18.66 21 17V4H9ZM7.89 10.41V8.26H5.61L4.57 7.22C5.15066 6.99592 5.76761 6.88066 6.39 6.88C7.73 6.88 8.98 7.4 9.93 8.34L11.34 9.75L11.14 9.95C10.8888 10.2037 10.5897 10.405 10.2601 10.5423C9.93056 10.6796 9.57703 10.7502 9.22 10.75C8.75 10.75 8.29 10.63 7.89 10.41ZM19 17C19 17.55 18.55 18 18 18C17.45 18 17 17.55 17 17V15H11V12.41C11.57 12.18 12.1 11.84 12.56 11.38L12.76 11.18L15.59 14H17V12.59L11 6.62V6H19V17Z" fill="#E2FBF5"/>
</svg>
