<svg width="23" height="23" viewBox="0 0 23 23" fill="none" xmlns="http://www.w3.org/2000/svg">
<path d="M16.2917 9.5835C16.3875 9.5835 16.4737 9.59308 16.56 9.59308L2.875 3.8335V9.5835L10.5417 11.5002L2.875 13.4168V19.1668L9.58333 16.3397V16.2918C9.58333 12.5927 12.5925 9.5835 16.2917 9.5835Z" fill="#046955"/>
<path d="M16.2917 11.5C13.6467 11.5 11.5 13.6467 11.5 16.2917C11.5 18.9367 13.6467 21.0833 16.2917 21.0833C18.9367 21.0833 21.0833 18.9367 21.0833 16.2917C21.0833 13.6467 18.9367 11.5 16.2917 11.5ZM17.8729 18.5438L15.8125 16.4833V13.4167H16.7708V16.0904L18.5438 17.8633L17.8729 18.5438Z" fill="#046955"/>
</svg>
