<svg width="38" height="38" viewBox="0 0 38 38" fill="none" xmlns="http://www.w3.org/2000/svg">
<path d="M33.25 19C33.25 11.1328 26.8672 4.75 19 4.75C11.1328 4.75 4.75 11.1328 4.75 19C4.75 26.8672 11.1328 33.25 19 33.25C26.8672 33.25 33.25 26.8672 33.25 19Z" stroke="white" stroke-width="2.375" stroke-miterlimit="10"/>
<path d="M25.3486 14.6841L24.5047 13.7022C23.3507 12.4939 21.8338 11.6954 20.1845 11.428C18.5352 11.1606 16.8437 11.4389 15.367 12.2207C13.8904 13.0025 12.7093 14.2449 12.0033 15.7592C11.2972 17.2736 11.1049 18.977 11.4554 20.6106C11.8059 22.2443 12.6802 23.7188 13.9453 24.8102C15.2105 25.9016 16.7973 26.5502 18.4647 26.6573C20.1321 26.7645 21.7889 26.3243 23.1833 25.4039C24.5777 24.4834 25.6335 23.1328 26.1902 21.5575" stroke="white" stroke-width="2.375" stroke-miterlimit="10" stroke-linecap="round"/>
<path d="M27.2618 12.0232C27.1788 12.0236 27.0967 12.0404 27.0202 12.0728C26.9438 12.1052 26.8745 12.1524 26.8165 12.2117L22.3975 16.6307C22.3078 16.7201 22.2467 16.834 22.2219 16.9581C22.1971 17.0823 22.2097 17.211 22.2581 17.3279C22.3065 17.4449 22.3886 17.5448 22.4938 17.615C22.5991 17.6853 22.7229 17.7227 22.8495 17.7225H27.2685C27.4382 17.7225 27.6009 17.6551 27.7209 17.5351C27.8409 17.4151 27.9083 17.2524 27.9083 17.0827V12.6623C27.9085 12.5778 27.8919 12.4941 27.8596 12.4161C27.8272 12.338 27.7797 12.2672 27.7198 12.2076C27.6599 12.148 27.5888 12.1009 27.5105 12.069C27.4323 12.0371 27.3485 12.0211 27.264 12.0217L27.2618 12.0232Z" fill="white"/>
</svg>
