<svg width="26" height="20" viewBox="0 0 26 20" fill="none" xmlns="http://www.w3.org/2000/svg">
<path d="M3.25 0.25C2.38805 0.25 1.5614 0.59241 0.951903 1.2019C0.34241 1.8114 0 2.63805 0 3.5L0 16.5C0 17.362 0.34241 18.1886 0.951903 18.7981C1.5614 19.4076 2.38805 19.75 3.25 19.75H22.75C23.612 19.75 24.4386 19.4076 25.0481 18.7981C25.6576 18.1886 26 17.362 26 16.5V3.5C26 2.63805 25.6576 1.8114 25.0481 1.2019C24.4386 0.59241 23.612 0.25 22.75 0.25H3.25ZM24.375 3.5V11.625H1.625V3.5C1.625 3.06902 1.7962 2.6557 2.10095 2.35095C2.4057 2.0462 2.81902 1.875 3.25 1.875H22.75C23.181 1.875 23.5943 2.0462 23.899 2.35095C24.2038 2.6557 24.375 3.06902 24.375 3.5ZM22.75 18.125H3.25C2.81902 18.125 2.4057 17.9538 2.10095 17.649C1.7962 17.3443 1.625 16.931 1.625 16.5V14.875H24.375V16.5C24.375 16.931 24.2038 17.3443 23.899 17.649C23.5943 17.9538 23.181 18.125 22.75 18.125Z" fill="#004435"/>
</svg>
