<svg width="23" height="23" viewBox="0 0 23 23" fill="none" xmlns="http://www.w3.org/2000/svg">
<path d="M0.625 3.34375C0.625 2.62269 0.911439 1.93117 1.4213 1.4213C1.93117 0.911439 2.62269 0.625 3.34375 0.625H16.9375C17.8989 0.625 18.8209 1.00692 19.5008 1.68674C20.1806 2.36656 20.5625 3.28859 20.5625 4.25V4.73575C21.1136 5.0539 21.5712 5.5115 21.8893 6.06255C22.2075 6.6136 22.375 7.2387 22.375 7.875V18.75C22.375 19.7114 21.9931 20.6334 21.3133 21.3133C20.6334 21.9931 19.7114 22.375 18.75 22.375H5.15625C3.95449 22.375 2.80195 21.8976 1.95217 21.0478C1.1024 20.1981 0.625 19.0455 0.625 17.8438V3.34375ZM2.4375 3.34375C2.4375 3.5841 2.53298 3.81461 2.70293 3.98457C2.87289 4.15452 3.1034 4.25 3.34375 4.25H18.75C18.75 3.76929 18.559 3.30828 18.2191 2.96837C17.8792 2.62846 17.4182 2.4375 16.9375 2.4375H3.34375C3.1034 2.4375 2.87289 2.53298 2.70293 2.70293C2.53298 2.87289 2.4375 3.1034 2.4375 3.34375ZM16.0312 11.5C15.7909 11.5 15.5604 11.5955 15.3904 11.7654C15.2205 11.9354 15.125 12.1659 15.125 12.4062C15.125 12.6466 15.2205 12.8771 15.3904 13.0471C15.5604 13.217 15.7909 13.3125 16.0312 13.3125H17.8438C18.0841 13.3125 18.3146 13.217 18.4846 13.0471C18.6545 12.8771 18.75 12.6466 18.75 12.4062C18.75 12.1659 18.6545 11.9354 18.4846 11.7654C18.3146 11.5955 18.0841 11.5 17.8438 11.5H16.0312Z" fill="#004435"/>
</svg>
