<svg width="52" height="37" viewBox="0 0 52 37" fill="none" xmlns="http://www.w3.org/2000/svg">
<rect x="1.31501" y="1.31477" width="49.95" height="34.41" rx="6.105" fill="white"/>
<path fill-rule="evenodd" clip-rule="evenodd" d="M16.6704 24.23H13.622L11.336 15.2525C11.2275 14.8395 10.9971 14.4745 10.6583 14.3024C9.81256 13.87 8.88065 13.5258 7.86401 13.3523V13.0066H12.7748C13.4525 13.0066 13.9608 13.5258 14.0456 14.1288L15.2316 20.6046L18.2786 13.0066H21.2423L16.6704 24.23ZM22.9367 24.23H20.0577L22.4283 13.0066H25.3073L22.9367 24.23ZM29.032 16.1156C29.1168 15.5111 29.6251 15.1655 30.2181 15.1655C31.15 15.0787 32.1652 15.2523 33.0124 15.6832L33.5207 13.2668C32.6735 12.9211 31.7416 12.7476 30.8959 12.7476C28.1016 12.7476 26.0683 14.3022 26.0683 16.4598C26.0683 18.1011 27.5086 18.963 28.5252 19.4822C29.6251 19.9999 30.0487 20.3455 29.964 20.8632C29.964 21.6398 29.1168 21.9854 28.271 21.9854C27.2544 21.9854 26.2378 21.7265 25.3074 21.2941L24.799 23.7121C25.8157 24.143 26.9155 24.3166 27.9322 24.3166C31.0653 24.4018 33.0124 22.8487 33.0124 20.5176C33.0124 17.5819 29.032 17.4099 29.032 16.1156ZM43.088 24.23L40.8021 13.0066H38.3467C37.8384 13.0066 37.3301 13.3523 37.1606 13.87L32.9276 24.23H35.8913L36.4829 22.5901H40.1243L40.4632 24.23H43.088ZM38.7703 16.0288L39.616 20.2587H37.2453L38.7703 16.0288Z" fill="#172B85"/>
<rect x="1.31501" y="1.31477" width="49.95" height="34.41" rx="6.105" stroke="#F2F4F7" stroke-width="1.11"/>
</svg>
