<svg width="45" height="45" viewBox="0 0 45 45" fill="none" xmlns="http://www.w3.org/2000/svg">
<path d="M36.6787 22.6839L39.5494 27.6564C40.1252 28.6539 40.4285 29.7853 40.4286 30.9371C40.4286 32.0889 40.1256 33.2204 39.5499 34.218C38.9741 35.2156 38.146 36.044 37.1486 36.6202C36.1513 37.1963 35.0199 37.4998 33.8681 37.5001H30V41.2501L20.625 34.6876L30 28.1251V31.8751H33.8662C34.0167 31.876 34.1652 31.8405 34.2991 31.7716C34.4329 31.7027 34.5481 31.6025 34.6348 31.4795C34.7216 31.3565 34.7773 31.2143 34.7972 31.0651C34.8172 30.9159 34.8007 30.7641 34.7494 30.6226L34.6781 30.4689L31.8075 25.4964L36.6787 22.6839ZM14.5069 17.5951L15.5006 28.9951L12.2569 27.1201L10.3219 30.4689C10.2458 30.5988 10.2023 30.7452 10.195 30.8955C10.1877 31.0459 10.2169 31.1958 10.2801 31.3325C10.3433 31.4691 10.4385 31.5885 10.5578 31.6803C10.677 31.7722 10.8167 31.8339 10.965 31.8601L11.1337 31.8751H16.875V37.5001H11.1337C9.98179 37.5001 8.85014 37.1968 7.85254 36.6209C6.85494 36.0449 6.02652 35.2164 5.45056 34.2188C4.8746 33.2212 4.57139 32.0895 4.5714 30.9376C4.5714 29.7856 4.87463 28.654 5.45061 27.6564L7.38373 24.3076L4.13623 22.4326L14.505 17.5951H14.5069ZM25.7812 5.567C26.7787 6.14263 27.6075 6.97138 28.1831 7.96888L30.1144 11.3176L33.3637 9.44263L32.37 20.8426L21.9975 16.0051L25.245 14.1301L23.3119 10.7814C23.2372 10.6507 23.1321 10.54 23.0054 10.4587C22.8788 10.3774 22.7344 10.3279 22.5845 10.3145C22.4346 10.3011 22.2836 10.324 22.1446 10.3815C22.0055 10.439 21.8823 10.5292 21.7856 10.6445L21.6881 10.7814L18.8194 15.7539L13.9462 12.9414L16.815 7.96888C17.2459 7.22232 17.8197 6.56798 18.5035 6.04322C19.1874 5.51846 19.9679 5.13356 20.8005 4.91051C21.6332 4.68747 22.5016 4.63064 23.3562 4.74328C24.2108 4.85593 25.0348 5.13583 25.7812 5.567Z" fill="black"/>
</svg>
