<svg width="13" height="18" viewBox="0 0 13 18" fill="none" xmlns="http://www.w3.org/2000/svg">
<path d="M11.5527 1.8289V15.2634L7.7844 12.248C7.4572 11.9863 7.05066 11.8437 6.63164 11.8437C6.21263 11.8437 5.80609 11.9863 5.47889 12.248L1.71059 15.2621V1.8289H11.5527ZM12.1678 0.598633H1.09546C0.932316 0.598633 0.775855 0.663441 0.660496 0.778801C0.545135 0.89416 0.480328 1.05062 0.480328 1.21376V16.5428C0.480493 16.6586 0.513312 16.7719 0.575015 16.8699C0.636718 16.9678 0.7248 17.0463 0.829138 17.0965C0.933476 17.1466 1.04984 17.1662 1.16485 17.1532C1.27986 17.1401 1.38885 17.0949 1.4793 17.0226L6.2478 13.2088C6.3568 13.1218 6.49215 13.0744 6.63164 13.0744C6.77113 13.0744 6.90648 13.1218 7.01548 13.2088L11.784 17.0226C11.8744 17.0949 11.9834 17.1401 12.0984 17.1532C12.2134 17.1662 12.3298 17.1466 12.4341 17.0965C12.5385 17.0463 12.6266 16.9678 12.6883 16.8699C12.75 16.7719 12.7828 16.6586 12.783 16.5428V1.21376C12.783 1.05062 12.7182 0.89416 12.6028 0.778801C12.4874 0.663441 12.331 0.598633 12.1678 0.598633Z" fill="#90EED7"/>
</svg>
