<svg width="25" height="25" viewBox="0 0 25 25" fill="none" xmlns="http://www.w3.org/2000/svg">
<path d="M23.9127 15.5626L21.6155 16.3283L22.6973 18.4918C22.8069 18.7182 22.8436 18.9731 22.8022 19.2213C22.7609 19.4695 22.6435 19.6987 22.4663 19.8773L19.8775 22.4662C19.6979 22.646 19.4665 22.7649 19.2158 22.8063C18.965 22.8478 18.7077 22.8096 18.4798 22.6971L16.3163 21.6154L15.5506 23.9125C15.4698 24.152 15.3163 24.3603 15.1115 24.5084C14.9067 24.6565 14.6609 24.7371 14.4081 24.739H10.7619C10.5071 24.7397 10.2585 24.6602 10.0513 24.5119C9.84411 24.3636 9.68877 24.1539 9.60723 23.9125L8.84152 21.6154L6.67808 22.6971C6.45163 22.8068 6.19673 22.8434 5.94855 22.8021C5.70037 22.7607 5.47115 22.6434 5.2925 22.4662L2.70367 19.8773C2.52389 19.6977 2.40492 19.4663 2.3635 19.2156C2.32208 18.9649 2.36028 18.7075 2.47274 18.4796L3.55446 16.3162L1.25732 15.5505C1.01787 15.4696 0.809591 15.3161 0.661459 15.1113C0.513327 14.9065 0.432713 14.6607 0.430836 14.408V10.7617C0.430178 10.5069 0.509618 10.2583 0.657927 10.0511C0.806236 9.84395 1.01591 9.68861 1.25732 9.60707L3.55446 8.84136L2.47274 6.67792C2.36308 6.45147 2.3264 6.19657 2.36777 5.94839C2.40913 5.70021 2.52649 5.47099 2.70367 5.29234L5.2925 2.7035C5.4721 2.52373 5.70353 2.40476 5.95424 2.36334C6.20496 2.32192 6.46235 2.36012 6.69023 2.47257L8.85367 3.55429L9.61939 1.25716C9.70092 1.01575 9.85627 0.806072 10.0635 0.657764C10.2707 0.509455 10.5192 0.430016 10.774 0.430674H14.4203C14.6751 0.430016 14.9237 0.509455 15.1308 0.657764C15.338 0.806072 15.4934 1.01575 15.5749 1.25716L16.3406 3.55429L18.5041 2.47257C18.7291 2.36568 18.9815 2.33051 19.2271 2.37182C19.4728 2.41312 19.6998 2.52891 19.8775 2.7035L22.4663 5.29234C22.6461 5.47194 22.7651 5.70336 22.8065 5.95408C22.8479 6.2048 22.8097 6.46219 22.6973 6.69007L21.6155 8.85351L23.9127 9.61923C24.1521 9.70009 24.3604 9.85359 24.5085 10.0584C24.6567 10.2631 24.7373 10.509 24.7392 10.7617V14.408C24.7398 14.6628 24.6604 14.9113 24.5121 15.1185C24.3638 15.3257 24.1541 15.4811 23.9127 15.5626ZM22.3083 11.6368L20.8498 11.1507C20.5145 11.0419 20.2067 10.8614 19.9481 10.6218C19.6894 10.3822 19.4859 10.0892 19.3518 9.76315C19.2177 9.43708 19.1561 9.08572 19.1713 8.73346C19.1865 8.3812 19.2782 8.03647 19.44 7.72318L20.1327 6.3376L18.7958 5.00064L17.4467 5.72989C17.135 5.88518 16.7936 5.97168 16.4455 5.98355C16.0975 5.99542 15.751 5.93238 15.4295 5.79869C15.1079 5.665 14.8189 5.46379 14.5818 5.20868C14.3448 4.95356 14.1654 4.6505 14.0557 4.32001L13.5695 2.86151H11.637L11.1508 4.32001C11.042 4.65539 10.8616 4.9631 10.622 5.22178C10.3824 5.48046 10.0894 5.68393 9.76332 5.81806C9.43724 5.95219 9.08588 6.01378 8.73362 5.99855C8.38136 5.98333 8.03663 5.89166 7.72334 5.72989L6.33776 5.0371L5.0008 6.37406L5.73005 7.72318C5.89182 8.03647 5.98349 8.3812 5.99872 8.73346C6.01394 9.08572 5.95235 9.43708 5.81822 9.76315C5.68409 10.0892 5.48062 10.3822 5.22194 10.6218C4.96326 10.8614 4.65556 11.0419 4.32017 11.1507L2.86167 11.6368V13.5329L4.32017 14.019C4.65556 14.1278 4.96326 14.3083 5.22194 14.5479C5.48062 14.7875 5.68409 15.0804 5.81822 15.4065C5.95235 15.7326 6.01394 16.084 5.99872 16.4362C5.98349 16.7885 5.89182 17.1332 5.73005 17.4465L5.03727 18.7956L6.37422 20.1326L7.72334 19.4398C8.03663 19.278 8.38136 19.1864 8.73362 19.1711C9.08588 19.1559 9.43724 19.2175 9.76332 19.3516C10.0894 19.4858 10.3824 19.6892 10.622 19.9479C10.8616 20.2066 11.042 20.5143 11.1508 20.8497L11.637 22.3082H13.533L14.0192 20.8497C14.128 20.5143 14.3084 20.2066 14.548 19.9479C14.7876 19.6892 15.0806 19.4858 15.4067 19.3516C15.7328 19.2175 16.0841 19.1559 16.4364 19.1711C16.7886 19.1864 17.1334 19.278 17.4467 19.4398L18.8322 20.1326L20.1692 18.7956L19.44 17.4465C19.2847 17.1348 19.1982 16.7934 19.1863 16.4454C19.1744 16.0974 19.2375 15.7508 19.3712 15.4293C19.5048 15.1078 19.7061 14.8187 19.9612 14.5817C20.2163 14.3447 20.5193 14.1652 20.8498 14.0555L22.3083 13.5693V11.6368ZM12.585 17.4465C11.6235 17.4465 10.6835 17.1614 9.88401 16.6272C9.08451 16.093 8.46138 15.3337 8.09341 14.4453C7.72544 13.557 7.62916 12.5794 7.81675 11.6364C8.00434 10.6933 8.46737 9.82704 9.14728 9.14712C9.8272 8.46721 10.6935 8.00418 11.6365 7.81659C12.5796 7.629 13.5571 7.72528 14.4455 8.09325C15.3338 8.46122 16.0931 9.08435 16.6273 9.88385C17.1615 10.6833 17.4467 11.6233 17.4467 12.5848C17.4467 13.8742 16.9345 15.1108 16.0227 16.0226C15.111 16.9343 13.8744 17.4465 12.585 17.4465ZM12.585 10.154C12.1042 10.154 11.6343 10.2966 11.2345 10.5637C10.8348 10.8308 10.5232 11.2104 10.3392 11.6546C10.1552 12.0988 10.1071 12.5875 10.2009 13.0591C10.2947 13.5306 10.5262 13.9637 10.8661 14.3037C11.2061 14.6437 11.6392 14.8752 12.1108 14.969C12.5823 15.0628 13.0711 15.0146 13.5152 14.8306C13.9594 14.6467 14.3391 14.3351 14.6062 13.9353C14.8733 13.5356 15.0158 13.0656 15.0158 12.5848C15.0158 11.9401 14.7597 11.3219 14.3039 10.866C13.848 10.4101 13.2297 10.154 12.585 10.154Z" fill="#004435"/>
</svg>
