<svg width="31" height="31" viewBox="0 0 31 31" fill="none" xmlns="http://www.w3.org/2000/svg">
<path d="M15.5 0.916748C7.44996 0.916748 0.916626 7.45008 0.916626 15.5001C0.916626 23.5501 7.44996 30.0834 15.5 30.0834C23.55 30.0834 30.0833 23.5501 30.0833 15.5001C30.0833 7.45008 23.55 0.916748 15.5 0.916748ZM26.3791 11.3001L22.325 12.9772C21.9597 11.9944 21.3861 11.1024 20.6434 10.3623C19.9008 9.6222 19.0068 9.0516 18.0229 8.68966L19.7 4.6355C22.7625 5.80216 25.1979 8.23758 26.3791 11.3001ZM15.5 19.8751C13.0791 19.8751 11.125 17.9209 11.125 15.5001C11.125 13.0792 13.0791 11.1251 15.5 11.1251C17.9208 11.1251 19.875 13.0792 19.875 15.5001C19.875 17.9209 17.9208 19.8751 15.5 19.8751ZM11.3145 4.62091L13.0208 8.67508C12.0252 9.0379 11.1207 9.61334 10.3701 10.3614C9.6196 11.1094 9.04112 12.012 8.67496 13.0063L4.62079 11.3147C5.20556 9.79238 6.10359 8.40992 7.25669 7.25681C8.40979 6.10371 9.79226 5.20569 11.3145 4.62091ZM4.62079 19.6855L8.67496 18.0084C9.03857 19.0002 9.61466 19.9004 10.3628 20.6461C11.111 21.3918 12.0132 21.9648 13.0062 22.3251L11.3 26.3792C9.78093 25.7918 8.40179 24.8927 7.25141 23.7398C6.10103 22.5869 5.20491 21.2058 4.62079 19.6855ZM19.7 26.3792L18.0229 22.3251C19.0114 21.9588 19.9084 21.3816 20.6513 20.6336C21.3943 19.8857 21.9654 18.9849 22.325 17.9938L26.3791 19.7001C25.7924 21.2172 24.8952 22.595 23.7451 23.7452C22.5949 24.8954 21.2171 25.7925 19.7 26.3792Z" fill="#004435"/>
</svg>
