<svg width="30" height="30" viewBox="0 0 30 30" fill="none" xmlns="http://www.w3.org/2000/svg">
<path d="M3 0C1.348 0 0 1.348 0 3C0.00147341 3.64023 0.20705 4.26331 0.586859 4.77872C0.966668 5.29412 1.50092 5.675 2.112 5.866L4.355 24.494C3.93926 24.7668 3.59781 25.1386 3.3613 25.576C3.12479 26.0134 3.00064 26.5027 3 27C3 28.652 4.348 30 6 30H24C25.652 30 27 28.652 27 27C27 25.93 26.436 24.99 25.59 24.458L27.826 5.884C28.4517 5.70343 29.002 5.32465 29.394 4.80459C29.786 4.28452 29.9987 3.65127 30 3C30 1.348 28.652 0 27 0H3ZM2 3C2 2.452 2.452 2 3 2H27C27.548 2 28 2.452 28 3C28 3.548 27.548 4 27 4H3C2.452 4 2 3.548 2 3ZM24.972 6L24.336 11.275L24.004 11.907L22.144 8.372L23.39 6H24.972ZM21.115 6L21.005 6.21L20.895 6H21.115ZM18.618 6L19.866 8.375L18.054 11.82L16.15 8.201L17.308 6H18.618ZM15.024 6L15.008 6.03L14.992 6H15.024ZM12.708 6L13.866 8.201L11.962 11.821L10.149 8.373L11.397 6H12.707H12.708ZM9.115 6L9.008 6.204L8.9 6H9.114H9.115ZM6.616 6L7.866 8.377L6.009 11.912L5.582 11.1L4.968 6H6.616ZM10.084 24H7.839L8.962 21.867L10.084 24ZM16.084 24H13.93L15.007 21.952L16.084 24ZM22.176 24H19.93L21.052 21.866L22.176 24ZM22.195 19.694L23.658 16.911L23.112 21.438L22.195 19.694ZM6.26 16.732L7.818 19.695L6.841 21.554L6.26 16.732ZM21.003 10.54L22.863 14.078L21.051 17.522L19.192 13.986L21.003 10.54ZM18.05 16.159L19.91 19.694L18.006 23.314L16.147 19.779L18.05 16.159ZM12.007 23.315L10.103 19.695L11.961 16.163L13.865 19.783L12.007 23.315ZM15.007 17.611L13.103 13.991L15.007 10.373L16.911 13.993L15.007 17.611ZM8.961 17.524L7.147 14.077L9.006 10.544L10.819 13.992L8.961 17.524ZM6 26H24C24.548 26 25 26.452 25 27C25 27.548 24.548 28 24 28H6C5.452 28 5 27.548 5 27C5 26.452 5.452 26 6 26Z" fill="white"/>
</svg>
