<svg width="34" height="34" viewBox="0 0 34 34" fill="none" xmlns="http://www.w3.org/2000/svg">
<path d="M14.6983 3.64816C14.7773 3.569 14.8711 3.5062 14.9743 3.46335C15.0776 3.42049 15.1883 3.39844 15.3001 3.39844C15.4119 3.39844 15.5226 3.42049 15.6259 3.46335C15.7291 3.5062 15.8229 3.569 15.9019 3.64816L21.0019 8.74816C21.1615 8.90776 21.2512 9.12424 21.2512 9.34996C21.2512 9.57568 21.1615 9.79215 21.0019 9.95176C20.8423 10.1114 20.6258 10.201 20.4001 10.201C20.1744 10.201 19.9579 10.1114 19.7983 9.95176L16.1501 6.30186V19.55C16.1501 19.7754 16.0605 19.9916 15.9011 20.151C15.7417 20.3104 15.5255 20.4 15.3001 20.4C15.0747 20.4 14.8585 20.3104 14.6991 20.151C14.5396 19.9916 14.4501 19.7754 14.4501 19.55V6.30186L10.8019 9.95176C10.6423 10.1114 10.4258 10.201 10.2001 10.201C9.97438 10.201 9.7579 10.1114 9.5983 9.95176C9.43869 9.79215 9.34902 9.57568 9.34902 9.34996C9.34902 9.12424 9.43869 8.90776 9.5983 8.74816L14.6983 3.64816ZM8.9557 28.9C9.2541 29.4168 9.6833 29.846 10.2001 30.1444C10.717 30.4428 11.3033 30.5999 11.9001 30.6H22.1001C23.9036 30.6 25.6332 29.8835 26.9084 28.6083C28.1837 27.333 28.9001 25.6034 28.9001 23.8V17.85C28.9001 17.6245 28.8105 17.4083 28.6511 17.2489C28.4917 17.0895 28.2755 17 28.0501 17C27.8247 17 27.6085 17.0895 27.4491 17.2489C27.2896 17.4083 27.2001 17.6245 27.2001 17.85V23.8C27.2001 25.1526 26.6628 26.4498 25.7063 27.4062C24.7499 28.3626 23.4527 28.9 22.1001 28.9H8.9557ZM6.8001 14.45C6.8001 14.2245 6.71054 14.0083 6.55114 13.8489C6.39173 13.6895 6.17553 13.6 5.9501 13.6C5.72466 13.6 5.50846 13.6895 5.34906 13.8489C5.18965 14.0083 5.1001 14.2245 5.1001 14.45V23.8C5.1001 24.7017 5.45831 25.5665 6.09593 26.2041C6.73356 26.8417 7.59836 27.2 8.5001 27.2H22.1001C23.0018 27.2 23.8666 26.8417 24.5043 26.2041C25.1419 25.5665 25.5001 24.7017 25.5001 23.8V14.45C25.5001 14.2245 25.4105 14.0083 25.2511 13.8489C25.0917 13.6895 24.8755 13.6 24.6501 13.6C24.4247 13.6 24.2085 13.6895 24.0491 13.8489C23.8897 14.0083 23.8001 14.2245 23.8001 14.45V23.8C23.8001 24.2508 23.621 24.6832 23.3022 25.002C22.9834 25.3209 22.551 25.5 22.1001 25.5H8.5001C8.04923 25.5 7.61683 25.3209 7.29802 25.002C6.9792 24.6832 6.8001 24.2508 6.8001 23.8V14.45Z" fill="#9CFFE6"/>
</svg>
