<svg width="27" height="26" viewBox="0 0 27 26" fill="none" xmlns="http://www.w3.org/2000/svg">
<path d="M28.6438 10.6399H26.8148V5.43113C26.8148 5.15484 26.7155 4.88987 26.5387 4.6945C26.3618 4.49913 26.122 4.38937 25.872 4.38937H3.24504C2.99499 4.38937 2.75519 4.27962 2.57839 4.08425C2.40158 3.88888 2.30225 3.6239 2.30225 3.34761C2.30225 3.07132 2.40158 2.80634 2.57839 2.61098C2.75519 2.41561 2.99499 2.30585 3.24504 2.30585H25.4949C25.7449 2.30585 25.9847 2.19609 26.1615 2.00073C26.3383 1.80536 26.4377 1.54038 26.4377 1.26409C26.4377 0.987799 26.3383 0.722823 26.1615 0.527455C25.9847 0.332087 25.7449 0.22233 25.4949 0.22233H3.24504C2.88102 0.214038 2.51909 0.285073 2.17992 0.431378C1.84076 0.577683 1.531 0.796391 1.26834 1.07501C1.00569 1.35363 0.795287 1.68669 0.649154 2.05518C0.503021 2.42367 0.424021 2.82037 0.416668 3.2226V25.0996C0.417902 25.6655 0.520152 26.2255 0.717563 26.7477C0.914974 27.2698 1.20367 27.7438 1.56711 28.1425C1.93055 28.5412 2.3616 28.8568 2.83557 29.0711C3.30954 29.2855 3.81712 29.3944 4.32925 29.3916H25.872C26.122 29.3916 26.3618 29.2819 26.5387 29.0865C26.7155 28.8911 26.8148 28.6262 26.8148 28.3499V23.1411H28.6438C28.7628 23.151 28.8824 23.134 28.9952 23.0911C29.1081 23.0482 29.2118 22.9803 29.3001 22.8915C29.3883 22.8028 29.4593 22.6951 29.5085 22.575C29.5578 22.4549 29.5844 22.3249 29.5866 22.1931V11.7755C29.5897 11.4892 29.4939 11.2123 29.3188 11.0014C29.1436 10.7904 28.9022 10.6611 28.6438 10.6399ZM27.7576 21.0575H19.6684C18.7022 21.0195 17.7892 20.5593 17.1299 19.778C16.4705 18.9967 16.1187 17.9582 16.1518 16.8905C16.1187 15.8228 16.4705 14.7843 17.1299 14.003C17.7892 13.2217 18.7022 12.7615 19.6684 12.7235H27.7576V21.0575Z" fill="#004435"/>
</svg>
