<svg width="15" height="15" viewBox="0 0 15 15" fill="none" xmlns="http://www.w3.org/2000/svg">
<path d="M5.57422 1.32422H4.64453C4.57148 1.32422 4.51172 1.38398 4.51172 1.45703V2.38672C4.51172 2.45977 4.57148 2.51953 4.64453 2.51953H5.57422C5.64727 2.51953 5.70703 2.45977 5.70703 2.38672V1.45703C5.70703 1.38398 5.64727 1.32422 5.57422 1.32422ZM4.84375 12.6797H3.91406C3.84102 12.6797 3.78125 12.7395 3.78125 12.8125V13.7422C3.78125 13.8152 3.84102 13.875 3.91406 13.875H4.84375C4.9168 13.875 4.97656 13.8152 4.97656 13.7422V12.8125C4.97656 12.7395 4.9168 12.6797 4.84375 12.6797ZM13.543 9.29297H12.6133C12.5402 9.29297 12.4805 9.35273 12.4805 9.42578V10.3555C12.4805 10.4285 12.5402 10.4883 12.6133 10.4883H13.543C13.616 10.4883 13.6758 10.4285 13.6758 10.3555V9.42578C13.6758 9.35273 13.616 9.29297 13.543 9.29297ZM2.1875 4.71094H1.25781C1.18477 4.71094 1.125 4.7707 1.125 4.84375V5.77344C1.125 5.84648 1.18477 5.90625 1.25781 5.90625H2.1875C2.26055 5.90625 2.32031 5.84648 2.32031 5.77344V4.84375C2.32031 4.7707 2.26055 4.71094 2.1875 4.71094ZM2.1875 7.36719H1.25781C1.18477 7.36719 1.125 7.42695 1.125 7.5V8.42969C1.125 8.50273 1.18477 8.5625 1.25781 8.5625H2.1875C2.26055 8.5625 2.32031 8.50273 2.32031 8.42969V7.5C2.32031 7.42695 2.26055 7.36719 2.1875 7.36719ZM2.1875 10.0234H1.25781C1.18477 10.0234 1.125 10.0832 1.125 10.1562V11.0859C1.125 11.159 1.18477 11.2188 1.25781 11.2188H2.1875C2.26055 11.2188 2.32031 11.159 2.32031 11.0859V10.1562C2.32031 10.0832 2.26055 10.0234 2.1875 10.0234ZM2.1875 12.6797H1.25781C1.18477 12.6797 1.125 12.7395 1.125 12.8125V13.7422C1.125 13.8152 1.18477 13.875 1.25781 13.875H2.1875C2.26055 13.875 2.32031 13.8152 2.32031 13.7422V12.8125C2.32031 12.7395 2.26055 12.6797 2.1875 12.6797ZM7.5 12.6797H6.57031C6.49727 12.6797 6.4375 12.7395 6.4375 12.8125V13.7422C6.4375 13.8152 6.49727 13.875 6.57031 13.875H7.5C7.57305 13.875 7.63281 13.8152 7.63281 13.7422V12.8125C7.63281 12.7395 7.57305 12.6797 7.5 12.6797ZM10.1562 12.6797H9.22656C9.15352 12.6797 9.09375 12.7395 9.09375 12.8125V13.7422C9.09375 13.8152 9.15352 13.875 9.22656 13.875H10.1562C10.2293 13.875 10.2891 13.8152 10.2891 13.7422V12.8125C10.2891 12.7395 10.2293 12.6797 10.1562 12.6797ZM12.4805 7.96484C12.4805 8.03789 12.5402 8.09766 12.6133 8.09766H13.543C13.616 8.09766 13.6758 8.03789 13.6758 7.96484V5.14258C13.6758 3.03418 11.9658 1.32422 9.85742 1.32422H7.03516C6.96211 1.32422 6.90234 1.38398 6.90234 1.45703V2.38672C6.90234 2.45977 6.96211 2.51953 7.03516 2.51953H9.85742C11.3067 2.51953 12.4805 3.69326 12.4805 5.14258V7.96484ZM2.91797 0.59375H0.527344C0.454297 0.59375 0.394531 0.653516 0.394531 0.726562V3.11719C0.394531 3.19023 0.454297 3.25 0.527344 3.25H2.91797C2.99102 3.25 3.05078 3.19023 3.05078 3.11719V0.726562C3.05078 0.653516 2.99102 0.59375 2.91797 0.59375ZM2.12109 2.28047C2.12109 2.30205 2.10283 2.32031 2.08125 2.32031H1.36406C1.34248 2.32031 1.32422 2.30205 1.32422 2.28047V1.56328C1.32422 1.5417 1.34248 1.52344 1.36406 1.52344H2.08125C2.10283 1.52344 2.12109 1.5417 2.12109 1.56328V2.28047ZM14.2734 11.9492H11.8828C11.8098 11.9492 11.75 12.009 11.75 12.082V14.4727C11.75 14.5457 11.8098 14.6055 11.8828 14.6055H14.2734C14.3465 14.6055 14.4062 14.5457 14.4062 14.4727V12.082C14.4062 12.009 14.3465 11.9492 14.2734 11.9492ZM13.4766 13.6359C13.4766 13.6575 13.4583 13.6758 13.4367 13.6758H12.7195C12.6979 13.6758 12.6797 13.6575 12.6797 13.6359V12.9188C12.6797 12.8972 12.6979 12.8789 12.7195 12.8789H13.4367C13.4583 12.8789 13.4766 12.8972 13.4766 12.9188V13.6359Z" fill="#90EED7"/>
</svg>
