<svg width="29" height="29" viewBox="0 0 29 29" fill="none" xmlns="http://www.w3.org/2000/svg">
<g clip-path="url(#clip0_350_156)">
<path d="M6.99359 13.7386C6.68229 13.5424 6.17298 13.7835 6.29079 14.1637C6.52143 14.7695 6.70404 15.3685 6.87125 15.9725C6.85856 16.3437 6.81823 16.7356 6.91112 17.0986L6.94782 17.2155C6.95326 17.2327 6.9587 17.2508 6.96504 17.2662C7.00582 17.3695 7.05929 17.4688 7.12998 17.5721C7.19568 17.6351 7.29447 17.6881 7.30625 17.7261C7.2648 17.8126 7.22522 17.8999 7.18753 17.988C7.31259 18.3786 7.44037 18.7683 7.57903 19.1571C7.66467 19.395 7.7494 19.6343 7.83822 19.8726C8.09123 19.9643 8.353 20.0297 8.6194 20.0679C8.7345 20.086 8.88584 20.1137 9.01181 20.1263C9.58682 20.3044 10.0848 20.5935 10.6625 20.7834C10.6779 20.7915 10.6924 20.7997 10.7074 20.8088C10.7137 20.7997 10.7255 20.8378 10.7255 20.8378C11.1515 20.5333 11.596 20.1939 11.8919 19.7747C11.9503 19.6913 12.0206 19.6057 12.1628 19.5282C12.7179 19.0565 13.2952 19.7117 13.8883 19.6125C14.5218 19.5001 14.9781 18.8177 15.5273 18.3859C15.5966 18.3265 15.6646 18.2681 15.7081 18.2318C15.8825 18.0895 16.0384 17.9355 16.1481 17.7483C16.1834 17.6935 16.2247 17.6197 16.2659 17.5385C16.5074 16.8874 16.8527 16.1148 16.6261 15.5181C16.4748 15.0233 15.8418 14.5928 15.3705 14.1841C15.2985 14.1931 15.1172 14.1238 14.9944 14.1156C14.3795 14.0726 13.7171 14.2131 13.3876 13.933C13.3067 13.8568 13.2331 13.773 13.1679 13.6829C12.814 13.1518 12.3994 12.4876 11.8756 12.275C11.5919 12.1672 11.3463 12.2705 11.1728 12.4631C11.0862 12.5488 10.9945 12.6292 10.8982 12.7037C10.3979 13.0213 9.89993 13.3005 9.4024 13.5791C9.6122 13.5837 9.82018 13.5945 10.0264 13.6081C9.81837 13.6018 9.61401 13.6054 9.41509 13.6172C9.06709 13.6399 8.71139 13.7713 8.35568 13.871C8.23865 13.9043 8.12029 13.9327 8.00089 13.9561C7.74351 14.0073 7.45895 14.3037 7.23329 14.2484C7.09645 14.2067 7.154 13.8555 6.99359 13.7386ZM7.22514 17.283C7.2564 17.4008 7.28721 17.5313 7.31848 17.67C7.27116 17.5563 7.22764 17.4412 7.18798 17.3247C7.08059 17.0197 7.02803 16.6975 6.98271 16.3736L7.22514 17.2843M11.233 13.7083C11.2589 13.7219 11.4319 13.7441 11.5176 13.7559C11.9426 13.8161 12.4769 13.8161 12.9477 13.9638C13.0627 13.9829 13.1837 14.0178 13.297 14.0459C13.187 14.0253 13.0762 14.0091 12.9649 13.9974C12.5525 13.8642 12.0817 13.9407 11.6993 13.919C11.609 13.9146 11.5195 13.9011 11.4319 13.8787C11.1362 13.7593 10.8255 13.681 10.5085 13.6458C10.7523 13.6661 10.992 13.6879 11.233 13.7083Z" fill="#D1D3D4"/>
<path d="M11.6993 20.3199C11.2167 20.1464 10.7183 20.0227 10.218 19.986C10.1622 19.9877 10.1064 19.991 10.0508 19.9959C9.59316 20.039 9.1355 19.9606 8.69778 19.87C9.13505 19.9606 9.58183 20.0208 10.0436 19.9787C10.136 19.971 10.2416 19.9624 10.4709 19.9823C10.8905 20.0734 11.3019 20.1722 11.7038 20.3122C11.2072 20.2601 10.7649 20.1069 10.2774 20.0575C10.1781 20.0671 10.0549 20.0702 9.96246 20.0739C9.50072 20.0997 9.03536 20.0394 8.70957 19.8274C8.34707 19.5573 8.4531 18.9619 8.57635 18.4635C8.56049 18.4358 8.47485 18.4104 8.41594 18.3719C8.34873 18.3089 8.28953 18.2378 8.23967 18.1603C8.00314 17.796 8.0113 17.3184 7.91478 16.9215C8.08289 17.3393 8.193 17.7874 8.42047 18.1716C8.46714 18.2482 8.51925 18.333 8.57771 18.4177C8.53421 18.322 8.4895 18.2268 8.44358 18.1322C8.05571 17.3538 7.6991 16.6056 7.22921 15.8621C7.07786 15.5848 7.43447 15.3183 7.70635 15.4212C7.85044 15.4864 7.86041 15.7692 7.97278 15.7791C8.1563 15.7864 8.32985 15.5113 8.52107 15.4311C8.611 15.3956 8.69876 15.3547 8.78388 15.3088C9.04397 15.1765 9.29863 15.0193 9.56416 14.9454C10.068 14.814 10.629 14.7238 11.1709 14.8294C11.2375 14.8339 11.3087 14.8294 11.3844 14.8194C11.6839 14.7755 12.0369 14.6423 12.3781 14.6808C12.4655 14.6722 12.553 14.6663 12.6436 14.6663C12.5512 14.6626 12.4501 14.6554 12.3599 14.6568C11.9712 14.6169 11.5579 14.7007 11.2181 14.7206C11.1487 14.7252 11.011 14.7347 10.9892 14.7279C10.5175 14.7845 10.0395 14.8294 9.55011 14.9168C9.89947 14.6217 10.2402 14.3164 10.5719 14.0015C10.635 13.9286 10.6935 13.8519 10.7473 13.7718C10.851 13.5955 11.0255 13.4764 11.2629 13.5144C11.7015 13.5973 12.127 14.0491 12.4855 14.4039C12.5497 14.4644 12.6204 14.5177 12.6962 14.563C12.9957 14.7288 13.4864 14.5154 13.9699 14.4524C14.0669 14.4388 14.2182 14.4651 14.273 14.4451C14.7017 14.6889 15.2604 14.9232 15.4575 15.2812C15.7258 15.7098 15.5798 16.3646 15.4947 16.9074C15.4781 16.9686 15.4589 17.0291 15.4371 17.0887C15.3805 17.25 15.2849 17.3945 15.1725 17.5327C15.1426 17.5676 15.1004 17.622 15.0547 17.6805C14.6972 18.1014 14.4507 18.7027 13.978 18.8889C13.5326 19.0593 12.9825 18.6424 12.6246 19.0951C12.5495 19.1589 12.4908 19.2397 12.4533 19.3307C12.2929 19.7 12.0006 20.0344 11.717 20.338C11.7174 20.3385 11.7038 20.3104 11.6993 20.3185" fill="#E6E7E8"/>
<path d="M5.74795 11.5327C6.10501 11.1475 6.46887 10.6355 6.95417 10.2422C7.05476 10.1398 7.1762 10.0369 7.28449 9.93948C7.18526 10.0369 7.09192 10.1366 7.00446 10.2367C6.57354 10.5825 6.33837 11.0637 6.05381 11.4212C5.98627 11.5083 5.91072 11.5888 5.82815 11.6618C5.77507 11.6986 5.72309 11.737 5.67227 11.7769C5.73616 12.0003 5.75248 12.2278 5.73073 12.4475C5.73888 12.4702 5.74795 12.4915 5.75429 12.5132C5.79824 12.6546 5.82181 12.7987 5.83087 12.9414C5.9369 13.1395 5.99716 13.3619 5.99309 13.5976C5.9877 13.8104 6.0012 14.0233 6.03341 14.2337C6.03432 14.2007 6.14942 14.6665 6.16663 14.7209C6.31073 15.1785 6.47431 15.6262 6.61024 16.0848C6.70223 16.3988 6.79557 16.7119 6.88937 17.0245C7.00899 17.0381 7.13406 17.0535 7.26682 17.0717C7.13904 17.0735 7.0167 17.0717 6.9007 17.0676L6.95009 17.2266L7.03029 17.214C7.14402 17.1768 7.27135 17.1011 7.3212 17.1057C7.78837 17.5973 8.39238 18.1415 9.12599 17.9417C9.19895 17.9167 9.27416 17.8887 9.34802 17.8565C9.28685 17.9004 9.22568 17.9421 9.16451 17.9852C9.22568 17.9421 9.28821 17.8995 9.35165 17.8547C9.89087 17.6245 10.4038 17.2112 10.8343 16.754C10.9317 16.6494 11.0672 16.5134 11.1664 16.3983C11.7577 15.9167 12.4202 15.5496 13.026 15.0693C13.046 15.0584 13.065 15.0476 13.0845 15.0376C13.08 15.0281 13.1303 15.0312 13.1303 15.0312C13.0791 14.5043 13.0025 13.946 12.736 13.5033C12.6663 13.3982 12.6336 13.2729 12.6431 13.1472C12.4954 12.4326 13.6205 12.1326 13.9133 11.5245C14.2196 10.8756 13.7664 10.1751 13.6577 9.48137C13.6378 9.3903 13.6174 9.3033 13.6083 9.24847C13.5684 9.02598 13.5018 8.81573 13.3672 8.63992C13.3189 8.5728 13.2675 8.50793 13.2132 8.44553C12.649 7.96205 12.0196 7.3322 11.1986 7.31861C10.5406 7.27375 9.62806 7.71373 8.85231 8.00509C8.81334 8.07986 8.61124 8.22577 8.51835 8.33995C8.05209 8.91316 7.75892 9.60281 7.2206 9.80989C7.08001 9.85886 6.93597 9.89733 6.78968 9.92498C6.4154 9.98525 6.00215 10.0464 5.60702 10.1339C5.59706 10.1932 5.58437 10.2508 5.56715 10.3074C5.56896 10.3876 5.56534 10.466 5.55627 10.5444C5.6034 10.7524 5.6111 10.9622 5.58391 11.1661C5.63104 11.3183 5.65596 11.4724 5.66321 11.6251L5.74795 11.5345" fill="#D1D3D4"/>
<path d="M5.73108 12.4498C5.73833 12.4715 5.74739 12.4915 5.75373 12.5137C5.79769 12.655 5.82216 12.7991 5.83031 12.9419C5.93634 13.1399 5.99661 13.3624 5.99253 13.598C5.98715 13.8108 6.00064 14.0237 6.03286 14.2342C6.03377 14.2011 6.14886 14.6669 6.16608 14.7213C6.31017 15.179 6.47375 15.6266 6.60969 16.0852C6.62963 16.1563 6.65047 16.2266 6.67177 16.2982C6.83081 16.2846 6.98941 16.2723 7.148 16.2615C7.56125 16.3394 7.99127 16.4468 8.44348 16.3793C8.55858 16.3621 8.67367 16.3335 8.80055 16.2918C8.88483 16.2488 8.97047 16.1772 9.01216 16.174C9.48386 16.4849 10.0788 16.8165 10.6262 16.5723C10.681 16.5447 10.7349 16.5148 10.7875 16.4817C10.7463 16.5229 10.7073 16.5614 10.6661 16.6004C10.7064 16.5614 10.7485 16.5211 10.7884 16.4808C11.1754 16.2402 11.5021 15.8641 11.7558 15.468C11.8134 15.377 11.8945 15.2583 11.9511 15.1595C12.3272 14.7236 12.7844 14.3656 13.1723 13.9297L13.2122 13.8989C13.2067 13.8925 13.248 13.8889 13.248 13.8889C13.1012 13.5001 12.9258 13.0914 12.6222 12.7933C12.5482 12.7256 12.4977 12.636 12.4781 12.5377C12.2135 12.0211 13.0558 11.6555 13.1673 11.1625C13.2824 10.6368 12.7767 10.1688 12.5506 9.66216C12.521 9.60651 12.4922 9.55047 12.4641 9.49405C12.3866 9.33183 12.2919 9.18275 12.1473 9.06811C12.1061 9.0305 12.0476 8.98791 11.9851 8.94214C11.435 8.65033 10.8025 8.25792 10.1418 8.35081C9.6062 8.39975 8.96458 8.84427 8.39953 9.161C8.38413 9.22127 8.25181 9.3563 8.1997 9.45372C7.94142 9.94219 7.84763 10.495 7.45794 10.7184C7.35392 10.7726 7.24627 10.8195 7.13577 10.8589C6.64413 11.017 6.06639 11.1901 5.64453 11.4384C5.65903 11.5395 5.66628 11.641 5.66266 11.7406C5.73561 11.9767 5.75691 12.2187 5.73108 12.4516M8.55178 16.1718C8.67775 16.1645 8.8155 16.1591 8.9605 16.1554C8.83391 16.1771 8.70667 16.1948 8.57897 16.2085C8.24411 16.2497 7.91197 16.2438 7.58073 16.232C7.902 16.2116 8.22417 16.1926 8.55178 16.1718ZM7.53316 10.8081C7.47289 10.8937 7.41988 10.9794 7.36913 11.0664C7.09453 11.3795 7.00391 11.7701 6.84803 12.0728C6.81088 12.1473 6.76592 12.2176 6.71391 12.2826C6.50083 12.4937 6.31552 12.7311 6.16245 12.989C6.26758 12.7973 6.37406 12.6066 6.47738 12.4167C6.49913 12.3977 6.58205 12.2617 6.62419 12.196C6.83217 11.8612 7.02022 11.4321 7.33061 11.0755C7.39133 10.9866 7.467 10.8937 7.53316 10.8081Z" fill="#E6E7E8"/>
<path d="M12.7327 18.8713C13.0137 18.555 13.2674 18.2206 13.4627 17.8722C13.48 17.8333 13.4963 17.794 13.5117 17.7544C13.6358 17.4258 13.8447 17.115 14.0554 16.8196C13.8447 17.115 13.653 17.4218 13.5252 17.7512C13.4853 17.8553 13.4365 17.9558 13.3793 18.0516C13.1789 18.3365 12.9643 18.6111 12.7364 18.8745C12.9407 18.5328 13.1963 18.241 13.3934 17.9053C13.421 17.8341 13.46 17.7471 13.4876 17.6823C13.6272 17.3538 13.8261 17.0334 14.0817 16.8327C14.3894 16.612 14.7664 16.7629 15.0681 16.9125C15.0931 16.9048 15.1384 16.8477 15.1859 16.8101C15.2571 16.7688 15.3242 16.738 15.3912 16.7131C15.7224 16.5935 16.051 16.6596 16.3568 16.6433C16.0106 16.7081 15.6654 16.728 15.3232 16.8395C15.2548 16.8622 15.1782 16.8875 15.1003 16.9179C15.1859 16.8989 15.2684 16.8798 15.3432 16.8613C16.0111 16.6873 16.6491 16.5309 17.3233 16.2948C17.5639 16.2237 17.6283 16.5092 17.4647 16.6859C17.3709 16.7792 17.1738 16.7502 17.128 16.8282C17.0619 16.956 17.1933 17.1132 17.1838 17.2568C17.1791 17.3236 17.1776 17.3906 17.1792 17.4576C17.1838 17.6565 17.2069 17.8572 17.1675 18.0525C17.0882 18.4227 16.9613 18.8278 16.7057 19.1958C16.679 19.2438 16.6574 19.2945 16.6414 19.3471C16.5684 19.5637 16.5422 19.8283 16.3999 20.0635C16.3768 20.1274 16.3506 20.1901 16.3215 20.2515C16.3541 20.1872 16.394 20.1179 16.4234 20.0531C16.5825 19.7857 16.6645 19.4835 16.7642 19.242C16.785 19.1935 16.8235 19.0952 16.8362 19.0816C16.9568 18.7422 17.0873 18.4005 17.191 18.0457C17.2785 18.3221 17.3673 18.6008 17.4783 18.879C17.5205 18.9538 17.5572 19.0086 17.5771 19.0322C17.6645 19.1282 17.6886 19.266 17.5807 19.4264C17.3745 19.7259 16.9219 19.9665 16.5548 20.1736C16.4987 20.2053 16.4234 20.2592 16.3736 20.3014C16.1579 20.4903 16.1389 20.8633 16.0206 21.2122C15.9966 21.2806 15.9277 21.3848 15.9227 21.426C15.6092 21.6961 15.2594 22.0591 14.9458 22.1515C14.5593 22.2865 14.1564 22.1003 13.8098 21.9725C13.7686 21.9485 13.7305 21.9276 13.7038 21.9082C13.6109 21.8479 13.5438 21.7613 13.4867 21.6648C13.4722 21.6399 13.4487 21.6037 13.4237 21.5642C13.2525 21.2593 12.9212 21.0092 12.952 20.6535C12.9847 20.3186 13.4586 19.9842 13.2647 19.677C13.2481 19.6166 13.2115 19.5635 13.1609 19.5265C12.9602 19.3661 12.8279 19.1178 12.7128 18.8804C12.7119 18.8817 12.7368 18.8745 12.7327 18.8713Z" fill="#D1D3D4"/>
<path d="M12.8711 19.4255C13.0445 19.1627 13.1866 18.8804 13.2943 18.5845C13.3025 18.5496 13.3097 18.517 13.3134 18.4916C13.3573 18.2325 13.4738 17.9728 13.5943 17.725C13.4738 17.9733 13.3709 18.2266 13.3242 18.4871C13.3152 18.5392 13.3043 18.5995 13.2567 18.7291C13.1389 18.9661 13.0179 19.2017 12.8743 19.4287C12.9812 19.1487 13.1398 18.8958 13.2427 18.6194C13.2527 18.5637 13.2694 18.4948 13.2803 18.4423C13.3378 18.1813 13.443 17.9175 13.6179 17.7327C13.8317 17.5238 14.1671 17.5754 14.4407 17.6393C14.4593 17.6303 14.4874 17.5822 14.5196 17.5482C14.5712 17.5061 14.6202 17.4735 14.6709 17.4458C14.9229 17.3072 15.2029 17.3063 15.4503 17.2474C15.1793 17.348 14.8979 17.415 14.6374 17.5482C14.5844 17.5759 14.5268 17.6049 14.4684 17.6393C14.5359 17.6121 14.5998 17.5859 14.6564 17.5609C15.1748 17.3316 15.6701 17.1209 16.1803 16.8454C16.3661 16.758 16.4685 16.956 16.3661 17.1101C16.3058 17.1925 16.1391 17.2016 16.115 17.2655C16.0833 17.3693 16.2174 17.4635 16.2369 17.5714C16.2433 17.6212 16.2551 17.6697 16.2677 17.7191C16.3067 17.8641 16.3597 18.0054 16.3624 18.1563C16.3624 18.4373 16.3307 18.7536 16.1853 19.0612C16.1717 19.0997 16.1635 19.1401 16.1585 19.1818C16.1386 19.3508 16.1635 19.5479 16.0897 19.7423C16.0797 19.7912 16.0693 19.8406 16.0579 19.8909C16.072 19.8388 16.0924 19.7831 16.1051 19.7309C16.188 19.5112 16.2016 19.2783 16.2419 19.0866C16.2496 19.0481 16.2659 18.9697 16.2727 18.957C16.3112 18.6915 16.3584 18.4223 16.3806 18.1468C16.502 18.3358 16.623 18.5247 16.763 18.7123C16.8101 18.7599 16.8491 18.7948 16.8713 18.8084C16.9588 18.8659 17.0027 18.9629 16.9443 19.097C16.8283 19.3462 16.497 19.5923 16.2324 19.7998C16.1934 19.8315 16.1413 19.8827 16.1078 19.9204C15.9646 20.0916 16.0135 20.3662 15.9791 20.6395C15.9719 20.6943 15.9333 20.7799 15.9352 20.8107C15.7272 21.0563 15.5047 21.374 15.2618 21.49C14.9695 21.6468 14.607 21.5729 14.3003 21.5308C14.2664 21.5231 14.2331 21.5131 14.2006 21.5009C14.1172 21.4697 14.0418 21.4203 13.9799 21.3563C13.9645 21.3409 13.9378 21.3178 13.9115 21.292C13.7162 21.0949 13.4008 20.9634 13.3632 20.6975C13.331 20.4491 13.6596 20.1333 13.4489 19.9362C13.4223 19.8941 13.3834 19.8612 13.3374 19.842C13.143 19.7559 12.9917 19.595 12.8557 19.4378C12.8566 19.4369 12.8747 19.4283 12.8711 19.4255Z" fill="#E6E7E8"/>
<path d="M9.90628 17.7625C9.52294 17.888 9.14865 18.144 8.82965 18.4322C8.7567 18.4984 8.65611 18.5831 8.58134 18.6552C8.26959 18.8695 7.93428 19.0403 7.60486 19.2302C7.77098 19.7053 7.94805 20.1765 8.13592 20.6435C8.3149 21.0749 8.5392 21.5824 8.69281 21.8506C8.94112 22.2861 9.21028 22.7174 9.53245 23.1049C9.42461 22.9676 9.80886 23.3455 9.84828 23.3849C10.0123 23.548 10.16 23.7152 10.281 23.9073C10.4763 23.6676 10.6603 23.4569 10.9041 23.3858C10.9906 23.3627 11.117 23.34 11.2045 23.3328C11.7831 23.2879 12.4923 23.2508 12.9236 22.9979C13.1497 22.8593 13.201 22.673 13.1479 22.5026C13.1292 22.421 13.1174 22.338 13.1126 22.2543C13.1362 21.842 13.1892 21.4441 13.2422 21.0449C13.1285 21.1736 13.0115 21.2982 12.8946 21.4201C13.0061 21.2942 13.1108 21.1664 13.2064 21.0404C13.3695 20.8179 13.4574 20.5569 13.5698 20.3041C13.6065 20.2198 13.6455 20.1373 13.6912 20.0567C13.7868 19.8813 13.7139 19.6099 13.8729 19.488C13.9762 19.4178 14.2051 19.5678 14.3768 19.5075C14.6836 19.3806 14.7692 18.9882 14.4267 18.9352C13.8758 18.8771 13.3273 18.7986 12.7823 18.6996C12.471 18.5478 12.1574 18.3674 11.7704 18.3316C11.6667 18.3228 11.5623 18.3234 11.4587 18.3334C11.3785 18.3525 11.2874 18.3964 11.2534 18.3919C10.9612 18.0276 10.581 17.6216 10.0671 17.7167C10.0132 17.7294 9.96247 17.7439 9.91036 17.7625C9.95522 17.7358 9.99872 17.7104 10.0445 17.6846C9.99736 17.7104 9.95159 17.7362 9.90628 17.7625ZM12.1946 22.1315C12.1719 22.1424 12.0641 22.243 12.011 22.2915C11.7437 22.5344 11.4664 22.8638 11.1116 23.1049C11.0386 23.1687 10.948 23.2322 10.8687 23.2924C10.9406 23.2328 11.0103 23.1705 11.0776 23.1058C11.3907 22.8937 11.5792 22.5783 11.7949 22.3499C11.8479 22.2933 11.9037 22.2416 11.9639 22.1986C12.2 22.06 12.4192 21.8946 12.6173 21.7056C12.476 21.8479 12.3341 21.9902 12.1946 22.1315ZM11.6123 18.4499C11.8946 18.4843 12.1606 18.5564 12.4252 18.6348C12.1588 18.5876 11.8932 18.536 11.6241 18.4871C11.5115 18.4656 11.3993 18.4424 11.2874 18.4177C11.4025 18.4259 11.5131 18.4381 11.6123 18.4499Z" fill="#D1D3D4"/>
<path d="M19.3571 22.6281C19.5116 23.0033 20.1224 23.1116 20.2615 22.6956C20.4418 22.0033 20.6639 21.3467 20.9 20.6974C21.1501 20.3716 21.4378 20.0458 21.5873 19.6588C21.6009 19.6166 21.6154 19.5736 21.6304 19.5319C21.6363 19.5129 21.6422 19.4929 21.6467 19.4744C21.6757 19.3547 21.6907 19.2319 21.6952 19.0951C21.6757 18.9954 21.6209 18.8839 21.6336 18.8418C21.7242 18.7911 21.818 18.7385 21.9091 18.6823C22.0482 18.2523 22.1828 17.8191 22.3069 17.3809C22.3835 17.1118 22.4614 16.8431 22.5344 16.5716C22.3657 16.3269 22.1721 16.1003 21.9566 15.8956C21.8656 15.8031 21.7468 15.6817 21.6431 15.5906C21.2393 15.0614 20.977 14.4809 20.5801 13.9408C20.5707 13.9241 20.5627 13.9067 20.556 13.8887C20.5443 13.8932 20.5578 13.8506 20.5578 13.8506C19.9806 13.8515 19.3616 13.8724 18.8287 14.0568C18.701 14.1073 18.5625 14.1243 18.4264 14.1062C17.6239 14.1746 17.5269 13.2135 16.9288 12.9226C16.2881 12.6168 15.4403 12.938 14.6695 12.9738L14.4085 12.9965C14.1602 13.0128 13.9214 13.0513 13.7012 13.1487C13.6198 13.1827 13.54 13.2202 13.4619 13.2611C12.8257 13.692 12.021 14.1646 11.8411 14.8452C11.6616 15.389 11.9526 16.1811 12.113 16.8512C12.1832 16.8884 12.3019 17.0674 12.4079 17.1548C12.9327 17.5866 13.6196 17.8857 13.7347 18.3497C13.7564 18.4562 13.7723 18.6089 13.7714 18.7158C13.7506 19.4195 13.6957 20.2827 14.0306 20.8097C14.2159 21.0889 14.5032 21.1532 14.7814 21.0929C14.8526 21.0766 14.9962 21.063 15.1842 21.0526C15.8363 21.0861 16.4643 21.1559 17.0896 21.2243C16.9043 21.0861 16.7235 20.9434 16.5477 20.7993C16.7299 20.9371 16.9156 21.0657 17.1037 21.1836C17.4304 21.3852 17.8332 21.4953 18.2179 21.6335C18.3452 21.6806 18.4726 21.7309 18.5917 21.7876C18.8555 21.9054 19.3013 21.822 19.4681 22.0169C19.5651 22.141 19.2864 22.4188 19.3571 22.6281ZM21.4229 19.2931C21.47 19.1676 21.5262 19.0285 21.5869 18.8853C21.5561 19.0267 21.5198 19.1608 21.4836 19.2795C21.3848 19.6239 21.2258 19.9447 21.0586 20.266C21.1791 19.9438 21.301 19.6216 21.4229 19.2931ZM15.5277 19.9356C15.5123 19.9066 15.3727 19.7752 15.3025 19.7114C14.9572 19.3824 14.4805 19.0412 14.1507 18.6066C14.0582 18.5156 13.9717 18.4054 13.8888 18.3076C13.9753 18.3977 14.065 18.4829 14.1561 18.5636C14.4425 18.9492 14.9142 19.1826 15.2436 19.4463C15.3261 19.5142 15.3986 19.5804 15.4579 19.6543C15.6471 19.951 15.8759 20.2206 16.1381 20.4554C15.9328 20.2836 15.7294 20.1074 15.5277 19.9356Z" fill="#D1D3D4"/>
<path d="M19.3508 13.6935C19.673 14.158 20.0404 14.5898 20.4677 14.9437C20.5262 14.9818 20.5792 15.0176 20.625 15.0411C21.0636 15.2967 21.4243 15.6619 21.761 16.024C21.4243 15.6619 21.0618 15.3212 20.6191 15.0624C20.5316 15.0094 20.4301 14.9492 20.2376 14.7851C19.9195 14.4349 19.6118 14.0805 19.3413 13.6976C19.7536 14.0656 20.0531 14.4852 20.46 14.8418C20.5552 14.8984 20.6676 14.9732 20.7537 15.0307C21.1846 15.3035 21.5652 15.6574 21.7211 16.0543C21.8729 16.531 21.3962 16.9991 20.9657 17.3661C20.9621 17.4006 21.0224 17.478 21.0514 17.5519C21.0722 17.6597 21.0795 17.7572 21.0731 17.855C21.0532 18.3344 20.7392 18.7577 20.5715 19.1773C20.6884 18.6947 20.8765 18.2194 20.9186 17.7291C20.9287 17.6216 20.9347 17.5139 20.9367 17.406C20.9118 17.5292 20.891 17.6443 20.8746 17.7504C20.721 18.6974 20.5629 19.6 20.5076 20.5711C20.4655 20.9173 19.9743 20.9268 19.7958 20.6603C19.7074 20.5081 19.8809 20.248 19.7858 20.1687C19.6245 20.0427 19.2941 20.1782 19.0698 20.1293C18.9667 20.1024 18.8617 20.0825 18.7558 20.0699C18.4368 20.0219 18.107 19.9997 17.8215 19.8964C17.2836 19.6911 16.7218 19.412 16.3013 18.9675C16.24 18.9187 16.1739 18.8762 16.1041 18.8406C15.8073 18.6883 15.4032 18.5805 15.1213 18.3277C15.0363 18.2788 14.9537 18.2257 14.8739 18.1686C14.9541 18.2329 15.0398 18.3041 15.1231 18.3603C15.4471 18.6453 15.8731 18.837 16.1898 19.0354C16.2559 19.0758 16.3855 19.1555 16.4009 19.1754C16.8609 19.4283 17.3185 19.6947 17.8151 19.9299C17.3122 19.9705 16.8106 20.0253 16.3108 20.0944C16.2074 20.1189 16.1058 20.1506 16.0067 20.1891C15.7987 20.2802 15.5658 20.2756 15.3769 20.0894C15.0366 19.7337 14.9423 19.054 14.8494 18.5044C14.8299 18.4095 14.8006 18.3168 14.762 18.228C14.5998 17.8859 14.0202 17.7622 13.5453 17.5079C13.4488 17.4572 13.3301 17.3385 13.2689 17.3222C13.0392 16.8274 12.6876 16.2578 12.7397 15.8092C12.7746 15.2523 13.3251 14.7579 13.7497 14.3243C13.8118 14.274 13.8702 14.2296 13.9178 14.1974C14.0728 14.0878 14.2509 14.0202 14.4416 13.9681C14.4901 13.9545 14.5644 13.9337 14.6424 13.911C15.2328 13.7611 15.8413 13.3791 16.3855 13.5159C16.8953 13.6473 17.1219 14.3764 17.7336 14.1983C17.875 14.1856 17.9606 14.1435 18.039 14.0968C18.4214 13.868 18.8981 13.7556 19.349 13.6641C19.3481 13.6645 19.3417 13.6976 19.3508 13.6935Z" fill="#E6E7E8"/>
<path d="M19.0584 25.4112C18.4906 25.5272 17.8358 25.7552 17.1466 25.7982C16.9903 25.824 16.8145 25.8394 16.6545 25.8576C16.8063 25.834 16.955 25.805 17.0982 25.7701C17.7072 25.7348 18.2269 25.4538 18.7117 25.3125C18.8291 25.2786 18.9492 25.2548 19.0706 25.2413C19.1417 25.2427 19.2129 25.2413 19.2831 25.2377C19.3706 24.9962 19.5011 24.78 19.6619 24.5983C19.6696 24.5734 19.6746 24.548 19.6832 24.5222C19.7344 24.3708 19.8033 24.226 19.8885 24.0908C19.9197 23.8395 20.0144 23.6003 20.1635 23.3957C20.3027 23.2059 20.4322 23.0092 20.5351 22.799C20.5129 22.828 20.7091 22.3363 20.7286 22.2752C20.8908 21.7736 21.0335 21.2642 21.2048 20.7658C21.3235 20.4255 21.4404 20.0834 21.5569 19.7422C21.4577 19.6538 21.3544 19.5578 21.2465 19.4581C21.3634 19.5387 21.4708 19.618 21.5732 19.6973L21.6299 19.522C21.6038 19.5077 21.5774 19.4943 21.5506 19.4816C21.4237 19.4422 21.261 19.4277 21.2193 19.3924C21.1156 18.6511 20.9203 17.7738 20.1336 17.4825C20.0498 17.4577 19.9652 17.4356 19.8799 17.4163C19.9633 17.4172 20.0439 17.4172 20.1273 17.419C20.0433 17.4169 19.9593 17.4157 19.8754 17.4154C19.2423 17.2749 18.5164 17.3198 17.8358 17.4539C17.6804 17.4838 17.4724 17.521 17.3084 17.5595C16.4688 17.6143 15.6382 17.5173 14.7854 17.5604C14.761 17.5587 14.7366 17.556 14.7124 17.5522C14.7106 17.5618 14.6667 17.5273 14.6667 17.5273C14.3744 18.0344 14.0853 18.5858 14.0405 19.1545C14.0332 19.2673 14.0096 19.3901 13.8955 19.5333C13.5706 20.2705 12.3662 19.8197 11.7137 20.1763C11.0213 20.5642 10.9801 21.4854 10.6307 22.1768C10.5913 22.2724 10.5532 22.3617 10.5265 22.4183C10.4209 22.6426 10.3452 22.876 10.3534 23.1202C10.3516 23.1941 10.3588 23.2911 10.3661 23.3935C10.5614 24.1892 10.7245 25.1598 11.4545 25.6994C12.0164 26.1621 13.1179 26.351 14.0038 26.5889C14.0858 26.5459 14.3626 26.5431 14.5176 26.5006C15.3056 26.2862 16.0102 25.8526 16.6278 26.0134C16.7687 26.0529 16.9581 26.124 17.0891 26.1861C17.4638 26.3732 17.8744 26.583 18.2853 26.7575C18.3338 26.7108 18.3814 26.6673 18.4322 26.6261C18.4834 26.5531 18.5355 26.4851 18.5944 26.4217C18.6859 26.2038 18.8132 26.0103 18.9696 25.844C19.0244 25.6781 19.101 25.5232 19.192 25.3813C19.1477 25.3916 19.1031 25.4008 19.0584 25.409" fill="#D1D3D4"/>
<path d="M19.6657 24.5957C19.6734 24.5708 19.6775 24.5472 19.6861 24.5214C19.7368 24.3673 19.8084 24.2214 19.8913 24.09C19.9226 23.8388 20.0172 23.5996 20.1664 23.3949C20.3055 23.2051 20.4351 23.0084 20.5379 22.7982C20.5157 22.8272 20.7119 22.3355 20.7314 22.2744C20.8936 21.7728 21.0364 21.2634 21.2077 20.765L21.2874 20.5344C21.1359 20.4448 20.9853 20.3537 20.8356 20.2611C20.5144 19.9272 20.1976 19.5538 19.7463 19.3232C19.6252 19.2636 19.4994 19.2139 19.3702 19.1745C19.2678 19.1591 19.1441 19.1673 19.1038 19.1428C18.8813 18.5633 18.5582 17.8827 17.908 17.7504C17.841 17.7399 17.7736 17.733 17.7059 17.7295C17.7053 17.7295 17.7047 17.7295 17.7041 17.7295C17.202 17.6964 16.6664 17.826 16.1843 18.0177C16.076 18.0644 15.9251 18.1183 15.81 18.1704C15.1924 18.3218 14.554 18.3494 13.9241 18.4926C13.9051 18.4926 13.8861 18.4935 13.8684 18.4944C13.8693 18.5035 13.8303 18.4808 13.8303 18.4808C13.7125 18.9249 13.6079 19.4034 13.689 19.8669C13.7128 19.9757 13.7012 20.0892 13.6559 20.1909C13.5612 20.8239 12.5702 20.6128 12.1542 20.9839C11.7133 21.3808 11.8669 22.1289 11.7464 22.7288L11.7165 22.9341C11.6816 23.1317 11.6707 23.3247 11.7274 23.5209C11.7401 23.5803 11.765 23.6582 11.7922 23.738C12.0999 24.3538 12.4161 25.1132 13.0686 25.4526C13.5825 25.7516 14.4448 25.7643 15.1557 25.8418C15.2074 25.797 15.4136 25.7607 15.5237 25.7059C16.0683 25.434 16.5074 24.9981 17.0022 25.0452C17.1141 25.0597 17.2723 25.0942 17.3806 25.1259C17.9234 25.2999 18.5564 25.516 19.0934 25.5627C19.1434 25.4626 19.203 25.3676 19.2715 25.279C19.3576 25.0189 19.4926 24.7874 19.6657 24.5957ZM19.518 19.4405C19.3992 19.3667 19.2733 19.2837 19.1391 19.1931C19.2742 19.2593 19.4029 19.3277 19.5171 19.3907C19.8447 19.5688 20.1383 19.7867 20.4278 20.0101C20.127 19.8221 19.8256 19.6322 19.5171 19.4405M16.9913 24.9143C17.0987 24.8762 17.202 24.8332 17.3026 24.7878C17.7508 24.6841 18.0829 24.3918 18.4178 24.2192C18.503 24.1734 18.5868 24.1385 18.6724 24.1154C18.9992 24.0624 19.318 23.9683 19.6213 23.8354C19.4042 23.9401 19.1863 24.0425 18.9715 24.1467C18.9398 24.1503 18.7771 24.2196 18.6983 24.2513C18.2959 24.4181 17.8518 24.6827 17.3434 24.8055C17.2333 24.8463 17.1046 24.8816 16.9913 24.9143Z" fill="#E6E7E8"/>
<path d="M17.4911 14.3302C17.0335 14.4335 16.5926 14.5713 16.1938 14.7607C16.1531 14.7832 16.1132 14.8073 16.0742 14.8327C15.7507 15.0493 15.3642 15.1943 14.9844 15.3248C15.3642 15.1943 15.7316 15.0407 16.0588 14.8273C16.1245 14.7842 16.2002 14.738 16.3828 14.6519C16.7461 14.5248 17.1154 14.4155 17.4893 14.3243C17.0869 14.5006 16.6696 14.5989 16.2763 14.7725C16.2065 14.8196 16.1159 14.8731 16.0493 14.9134C15.7126 15.1187 15.3284 15.2804 14.9704 15.2967C14.5517 15.2976 14.3097 14.9197 14.1339 14.5912C14.1072 14.5835 14.0306 14.6048 13.9635 14.6084C13.8802 14.6008 13.7977 14.5858 13.717 14.5636C13.3419 14.4589 13.089 14.1884 12.8017 14.0067C13.1538 14.1698 13.4782 14.3746 13.8575 14.4929C13.9327 14.5178 14.0179 14.5441 14.1085 14.5658C14.017 14.5278 13.9323 14.492 13.8539 14.4621C13.1402 14.1893 12.4678 13.9201 11.7111 13.6999C11.4464 13.6088 11.5742 13.312 11.8343 13.2563C11.9775 13.2323 12.1365 13.3868 12.2267 13.3447C12.3699 13.2735 12.3518 13.0492 12.4524 12.9228C12.5013 12.8662 12.5434 12.8068 12.5856 12.7447C12.7097 12.5639 12.8185 12.3686 12.9789 12.2191C13.2884 11.9373 13.6604 11.6527 14.1276 11.4864C14.1806 11.4606 14.2313 11.428 14.2807 11.3917C14.4874 11.2449 14.679 11.0238 14.9582 10.9041C15.0202 10.8602 15.0819 10.8212 15.1498 10.7845C15.0805 10.8203 14.9989 10.8575 14.931 10.8978C14.616 11.0346 14.3496 11.254 14.104 11.408C14.0546 11.437 13.9563 11.5014 13.9359 11.5054C13.611 11.7343 13.2734 11.9554 12.9531 12.2082C13.0505 11.9055 13.1502 11.597 13.2295 11.2757C13.2385 11.1815 13.2422 11.1094 13.2385 11.075C13.2213 10.9318 13.2897 10.794 13.4887 10.7184C13.8661 10.5815 14.4275 10.6545 14.8902 10.7048C14.9613 10.7129 15.0637 10.7129 15.1358 10.7057C15.4493 10.6749 15.7072 10.3527 16.037 10.1162C16.1009 10.0677 16.2314 10.0196 16.2618 9.98475C16.7149 9.94261 17.2637 9.84156 17.6049 9.95892C18.0403 10.0867 18.2809 10.5122 18.5111 10.8498C18.5319 10.8969 18.5542 10.9408 18.5646 10.9757C18.6099 11.0895 18.6158 11.2114 18.604 11.3337C18.6006 11.3775 18.5979 11.4213 18.5958 11.4651C18.5537 11.8485 18.6924 12.2862 18.4359 12.5875C18.1903 12.8648 17.5505 12.863 17.5251 13.2631C17.5021 13.3283 17.5015 13.3992 17.5233 13.4647C17.6008 13.7393 17.5595 14.047 17.5124 14.3343C17.5129 14.3347 17.4857 14.3248 17.4875 14.3302" fill="#D1D3D4"/>
<path d="M17.7217 13.7451C17.3878 13.8783 17.0728 14.0373 16.8019 14.2286C16.7749 14.2516 16.7488 14.2757 16.7235 14.3006C16.5182 14.5041 16.2482 14.6626 15.9795 14.8081C16.2482 14.6626 16.5033 14.5004 16.7113 14.297C16.7516 14.2557 16.8005 14.2082 16.9278 14.1225C17.1857 13.9866 17.4453 13.8516 17.7208 13.7383C17.4444 13.9227 17.1395 14.0468 16.8685 14.229C16.8245 14.2739 16.7647 14.3246 16.7226 14.3649C16.5037 14.563 16.24 14.7324 15.9631 14.7854C15.6364 14.8366 15.37 14.5747 15.1638 14.3418C15.1407 14.3373 15.085 14.3636 15.0351 14.3736C14.9676 14.3778 14.8998 14.376 14.8326 14.3681C14.5181 14.3314 14.2662 14.1511 14.0047 14.0473C14.3133 14.1311 14.6088 14.2498 14.9287 14.2974C14.9944 14.3074 15.0637 14.3174 15.1394 14.3246C15.061 14.3056 14.9871 14.287 14.9187 14.2725C14.3079 14.1474 13.727 14.0188 13.0926 13.9395C12.8697 13.8982 12.9046 13.6549 13.0962 13.5824C13.2032 13.5466 13.359 13.6463 13.4211 13.6032C13.5149 13.5294 13.4556 13.3586 13.5077 13.2512C13.5335 13.2009 13.5543 13.1497 13.5752 13.098C13.6318 12.943 13.6753 12.7813 13.7696 12.6449C13.9495 12.3938 14.1819 12.1301 14.5104 11.9466C14.5458 11.9199 14.5798 11.89 14.611 11.8555C14.7379 11.7169 14.8421 11.5234 15.0329 11.3956C15.0737 11.3576 15.1149 11.319 15.1566 11.2823C15.1099 11.3199 15.0569 11.3562 15.0107 11.3947C14.795 11.5406 14.6337 11.7395 14.4742 11.8863C14.4395 11.9209 14.4029 11.9534 14.3645 11.9838C14.1593 12.1972 13.9449 12.4088 13.7478 12.6426C13.7587 12.3952 13.7727 12.1478 13.7668 11.8877C13.7597 11.835 13.7474 11.7831 13.7301 11.7327C13.6871 11.6231 13.7111 11.508 13.8498 11.426C14.1135 11.2764 14.5698 11.2669 14.94 11.2506C14.9966 11.2488 15.075 11.2352 15.1298 11.2252C15.3691 11.1613 15.4991 10.8822 15.7076 10.6602C15.7493 10.6153 15.839 10.5623 15.8562 10.5324C16.201 10.4459 16.6043 10.3036 16.8975 10.3552C17.2618 10.401 17.5396 10.701 17.7879 10.9357C17.8169 10.9697 17.8427 11.0005 17.859 11.0272C17.9166 11.1092 17.9465 11.2017 17.9628 11.2991C17.9678 11.3218 17.9773 11.3612 17.985 11.3992C18.0321 11.7015 18.2315 12.0236 18.0951 12.2865C17.9646 12.5302 17.4653 12.6032 17.5305 12.9163C17.5259 12.9709 17.5396 13.0254 17.5695 13.0713C17.6873 13.2738 17.7222 13.5149 17.743 13.7437C17.7435 13.7455 17.7226 13.741 17.7235 13.7473" fill="#E6E7E8"/>
<path d="M19.3208 17.1427C19.7467 17.2768 20.2461 17.2863 20.7178 17.231C20.8261 17.2202 20.9706 17.207 21.0839 17.1916C21.5026 17.198 21.9131 17.2591 22.3313 17.3008C22.4827 16.7661 22.6345 16.231 22.7609 15.6886C22.8778 15.1875 23.0006 14.5862 23.0346 14.2477C23.0912 13.6967 23.1257 13.1352 23.0835 12.5806C23.0935 12.7741 22.9906 12.1873 22.9802 12.1275C22.9345 11.8809 22.9162 11.63 22.9254 11.3794C22.5978 11.4714 22.2969 11.5407 22.0309 11.4487C21.9265 11.408 21.8253 11.3596 21.7282 11.3037C21.1795 10.9743 20.5179 10.5524 19.9669 10.5012C19.6747 10.4813 19.5093 10.6154 19.4476 10.8026C19.4131 10.8887 19.3708 10.9715 19.3212 11.05C19.0353 11.4039 18.7326 11.7287 18.4295 12.0527C18.613 12.0115 18.7988 11.9734 18.9818 11.9395C18.801 11.9798 18.6248 12.0278 18.458 12.079C18.1685 12.1746 17.9211 12.3518 17.6587 12.509C17.5722 12.5624 17.4825 12.6102 17.39 12.6522C17.1929 12.7496 17.0832 13.0392 16.8626 13.0464C16.7257 13.0446 16.6133 12.7619 16.4226 12.707C16.0651 12.6259 15.7366 12.9205 16.0102 13.1896C16.4869 13.6065 16.9165 14.0284 17.3365 14.4552C17.5187 14.791 17.6859 15.1548 18.0108 15.4371C18.0928 15.5055 18.1839 15.5712 18.2926 15.6347C18.3778 15.6691 18.4879 15.6882 18.5142 15.7149C18.5423 16.2287 18.6243 16.8377 19.1472 17.0833C19.203 17.1064 19.2587 17.1255 19.3171 17.144C19.2605 17.1391 19.2039 17.1341 19.1472 17.1273C19.2048 17.1336 19.2632 17.1395 19.3208 17.1445M20.068 11.7496C20.0956 11.7541 20.2569 11.7342 20.3344 11.7229C20.7304 11.678 21.1922 11.5588 21.6657 11.5706C21.7722 11.5606 21.8927 11.5597 22.0042 11.5579C21.8981 11.5643 21.7966 11.576 21.6965 11.5914C21.2792 11.5806 20.9072 11.7428 20.5669 11.8094C20.4853 11.8272 20.4021 11.8367 20.3186 11.8375C20.0172 11.811 19.7137 11.819 19.4141 11.8611C19.6334 11.8244 19.8518 11.7877 20.068 11.7496ZM18.2283 15.4326C17.9976 15.2205 17.8037 14.9844 17.617 14.7452C17.8259 14.9591 18.0312 15.1748 18.2419 15.3923C18.3225 15.4775 18.4109 15.5703 18.5002 15.6705C18.4023 15.5894 18.3103 15.5074 18.2283 15.4326Z" fill="#D1D3D4"/>
<path d="M24.1878 8.3887C24.1878 6.84943 19.7811 5.60107 14.3454 5.60107C8.9084 5.60107 4.50085 6.84943 4.50085 8.3887C4.50085 8.44987 4.50901 8.51195 4.5226 8.57221C4.50885 8.64941 4.50157 8.72762 4.50085 8.80603L7.85715 26.6859C7.85715 26.8064 7.87392 26.9206 7.90292 27.0307C7.9011 27.0493 7.89748 27.0692 7.89748 27.0874C7.89748 28.0874 10.7848 28.8976 14.3454 28.8976C17.9047 28.8976 20.7916 28.0874 20.7916 27.0874C20.7916 27.0692 20.7889 27.0493 20.7871 27.0307C20.8167 26.9181 20.8321 26.8023 20.8328 26.6859L24.1878 8.80603C24.1878 8.72582 24.1805 8.64834 24.166 8.57221C24.1805 8.51195 24.1878 8.44987 24.1878 8.3887M17.1584 12.2897C18.1232 12.1909 19.0045 12.0432 19.7639 11.8556L19.3421 14.0836H17.0298L17.1584 12.2897M16.9541 15.153H19.1386L18.7716 17.0878H16.8163L16.9541 15.153M16.7398 18.159H18.5659L18.2083 20.0449H16.6025L16.7375 18.159M12.0821 20.0449H10.4771L10.1182 18.159H11.9489L12.0839 20.0449M11.8718 17.0878H9.91751L9.54957 15.153H11.7332L11.8718 17.0878ZM11.5288 12.2897L11.6566 14.0836H9.34703L8.92471 11.8556C9.6837 12.0432 10.565 12.1909 11.5288 12.2897ZM6.08226 10.4391C6.08226 10.3725 6.0886 10.3077 6.10039 10.2438C6.20642 10.7073 6.79095 11.1342 7.71396 11.4867L8.22962 14.0836H6.76603L6.08226 10.4404M6.96631 15.1543H8.44078L8.82412 17.0892H7.32971L6.96631 15.1543M7.88434 20.0462L7.53045 18.1603H9.03709L9.41228 20.0462H7.88434ZM8.08507 21.117H9.62343L10.0068 23.0518H8.44848L8.08507 21.117M10.024 26.5726C9.87611 26.5727 9.72966 26.5436 9.59302 26.487C9.45638 26.4304 9.33222 26.3475 9.22765 26.2429C9.12308 26.1384 9.04014 26.0142 8.98357 25.8776C8.927 25.7409 8.89792 25.5945 8.89798 25.4466L8.64967 24.1217H10.2193L10.7055 26.5726H10.024M10.6801 21.117H12.1569L12.2955 23.0518H11.0472L10.6801 21.117M11.7151 26.5726L11.2506 24.1217H12.3721L12.5474 26.5726H11.7151M15.1389 26.5726H13.5457L13.3907 24.1217H15.2943L15.1389 26.5726ZM15.3614 23.0509H13.3227L13.2004 21.1161H15.4842L15.3623 23.0509M15.5521 20.0458H13.1338L13.0151 18.1599H15.6704L15.5521 20.0458ZM15.7384 17.0887H12.9467L12.8252 15.1539H15.8602L15.7384 17.0887ZM15.9282 14.0845H12.7577L12.6503 12.3807C13.1968 12.4124 13.7627 12.431 14.3441 12.431C14.9223 12.431 15.4891 12.4124 16.0356 12.3816L15.9282 14.0845M16.9704 26.5726H16.1371L16.3134 24.1217H17.4358L16.9704 26.5726ZM16.39 23.0509L16.5268 21.1161H18.0062L17.6383 23.0509H16.39M19.7884 25.4461C19.7881 25.7447 19.6694 26.031 19.4583 26.2421C19.2472 26.4532 18.9609 26.5719 18.6624 26.5722H17.9818L18.4671 24.1212H20.0367L19.7884 25.4461M20.237 23.0509H18.6791L19.0625 21.1161H20.6004L20.237 23.0509M20.8011 20.0458H19.2755L19.6493 18.1599H21.155L20.8011 20.0458M21.3557 17.0887H19.8613L20.2447 15.1539H21.7192L21.3557 17.0887M21.9199 14.0845H20.4567L20.9724 11.4876C21.895 11.1355 22.48 10.7082 22.586 10.2447C22.5969 10.3086 22.6046 10.3734 22.6046 10.44L21.9199 14.0831" fill="#A7A9AC"/>
<path d="M22.605 8.26556C22.605 9.35759 18.8509 10.2439 14.2218 10.2439C9.59264 10.2439 5.8385 9.35759 5.8385 8.26556C5.8385 7.17126 9.59264 6.2854 14.2218 6.2854C18.8509 6.2854 22.605 7.17126 22.605 8.26556Z" fill="#838384"/>
<path d="M11.1835 9.16773C10.9043 9.40698 10.9845 9.96432 11.3824 9.96432C12.0303 9.92218 12.6561 9.92445 13.2823 9.94257C13.6326 10.0649 13.996 10.2181 14.3698 10.2362H14.4926C14.5108 10.2362 14.5289 10.2362 14.547 10.2344C14.6567 10.2253 14.7681 10.2036 14.8878 10.1669C14.9671 10.1229 15.0468 10.0436 15.0862 10.0436C15.1546 10.1066 15.2276 10.1723 15.3019 10.2344C15.713 10.2319 16.1241 10.2223 16.5349 10.2054C16.7877 10.1936 17.0401 10.1827 17.2943 10.1687C17.4529 9.96251 17.5934 9.72688 17.7121 9.47948C17.7624 9.37481 17.8335 9.23751 17.882 9.12151C18.2232 8.62398 18.6451 8.23384 18.9971 7.73721C19.0098 7.72453 19.0225 7.7132 19.0352 7.70232C19.028 7.69326 19.0683 7.69326 19.0683 7.69326C18.9029 7.19573 18.7085 6.67101 18.3968 6.26592C18.3176 6.17005 18.2639 6.05584 18.2404 5.93378C17.9541 5.26406 18.7506 4.90609 18.829 4.30978C18.9088 3.67268 18.3904 3.03604 18.1403 2.38354C18.104 2.29926 18.0673 2.21724 18.0465 2.16559C17.9613 1.9567 17.8593 1.76231 17.7143 1.60281C17.6614 1.54215 17.6058 1.48394 17.5476 1.42835C16.9984 1.00468 16.3613 0.447337 15.726 0.487666C15.2081 0.487666 14.6109 0.965712 14.0816 1.29423C14.0699 1.36628 13.9493 1.51853 13.9054 1.63362C13.6829 2.20863 13.6226 2.88379 13.2574 3.11579C13.1601 3.17048 13.058 3.21628 12.9525 3.25263C12.3412 3.43434 11.584 3.63417 11.2261 4.07234C11.0398 4.31159 11.0661 4.57621 11.1984 4.7987C11.2324 4.85443 11.2859 4.97406 11.3484 5.13265C11.5043 5.70404 11.6239 6.26229 11.7435 6.81918C11.8101 6.62026 11.8822 6.42496 11.956 6.23238C11.8885 6.42859 11.8319 6.6257 11.7834 6.81918C11.7032 7.15767 11.724 7.53648 11.7141 7.90578C11.7116 8.02754 11.7032 8.14912 11.6891 8.27009C11.6638 8.53109 11.8627 8.89087 11.7431 9.08979C11.6638 9.20715 11.3443 9.04856 11.1857 9.16773M14.6408 9.99106C14.7631 9.99559 14.8959 10.0047 15.0386 10.0155C14.9161 10.0274 14.7933 10.0352 14.6703 10.0391C14.3472 10.0518 14.0241 10.0074 13.701 9.95526C14.0119 9.96659 14.3236 9.97928 14.6408 9.99106ZM12.4051 5.10728C12.425 5.08643 12.4984 4.92784 12.5347 4.84899C12.7173 4.46021 12.875 3.95045 13.1555 3.54399C13.2085 3.44023 13.2769 3.3342 13.3363 3.23451C13.2832 3.3342 13.2366 3.43434 13.1922 3.53674C12.9438 3.8929 12.8781 4.36551 12.7449 4.72393C12.7138 4.80889 12.6744 4.89055 12.6271 4.96771C12.4261 5.21478 12.2601 5.48831 12.1337 5.78062C12.2234 5.55451 12.3154 5.33112 12.4051 5.10728Z" fill="#D1D3D4"/>
<path d="M18.8594 6.61128C18.5508 7.02091 18.2862 7.45998 18.104 7.92806C18.0877 7.98923 18.0741 8.04452 18.0637 8.09028C17.9708 8.54114 17.7597 8.9553 17.5444 9.3468C17.7597 8.9553 17.9486 8.54567 18.0451 8.09209C18.0651 8.00192 18.0873 7.8977 18.1747 7.68519C18.3845 7.31136 18.5997 6.94614 18.8526 6.60494C18.6564 7.06259 18.3791 7.44095 18.1892 7.89272C18.167 7.99014 18.1344 8.10886 18.1126 8.19812C17.9994 8.64626 17.8036 9.07447 17.5064 9.32233C17.1411 9.58877 16.6042 9.31236 16.1651 9.04773C16.1343 9.05408 16.0844 9.12884 16.0301 9.17461C15.9497 9.21964 15.8644 9.25522 15.7759 9.28064C15.3581 9.39936 14.9036 9.25073 14.4967 9.22581C14.9439 9.1882 15.4075 9.21494 15.8402 9.10981C15.9254 9.08897 16.0224 9.06495 16.1211 9.03414C16.0097 9.04773 15.9041 9.06223 15.8094 9.07809C14.9512 9.21856 14.1301 9.33909 13.2796 9.56883C12.971 9.63181 12.8219 9.21176 13.0005 8.98294C13.1047 8.86422 13.3775 8.93808 13.4205 8.83341C13.4817 8.65986 13.2705 8.41381 13.2488 8.20764C13.2418 8.11106 13.2291 8.01498 13.2107 7.91991C13.1613 7.63262 13.0866 7.34262 13.0938 7.06667C13.1174 6.54739 13.1962 5.98461 13.4572 5.49705C13.4808 5.43497 13.4971 5.36564 13.5102 5.29087C13.5574 4.99136 13.5329 4.61481 13.6707 4.29989C13.6888 4.21425 13.7087 4.12861 13.7345 4.04251C13.7037 4.12906 13.667 4.22331 13.6435 4.31076C13.4903 4.67009 13.4482 5.09014 13.368 5.42047C13.3517 5.48798 13.3199 5.62211 13.3077 5.64114C13.2221 6.10831 13.1233 6.5782 13.063 7.07211C12.8822 6.65977 12.7028 6.24516 12.4916 5.82647C12.4404 5.74437 12.384 5.66566 12.3226 5.59084C12.1849 5.4395 12.1228 5.23786 12.2293 5.02262C12.4382 4.6275 12.9941 4.35336 13.4391 4.11637C13.5057 4.07876 13.5954 4.01487 13.6534 3.96231C13.8999 3.72533 13.8406 3.192 13.9226 2.71123C13.938 2.61426 14.0078 2.47833 14.0055 2.41987C14.3648 2.0823 14.7532 1.61694 15.1537 1.53447C15.6427 1.40397 16.224 1.73701 16.7175 1.97808C16.7782 2.01614 16.8335 2.05466 16.8747 2.08683C17.0129 2.18787 17.1221 2.32245 17.2218 2.47108C17.2454 2.50914 17.2857 2.56578 17.3274 2.62605C17.6246 3.09231 18.1267 3.50466 18.1652 4.01125C18.1969 4.48748 17.6359 4.89076 17.9645 5.36519C18.0148 5.48209 18.0759 5.54417 18.138 5.59809C18.4439 5.86181 18.6763 6.23881 18.8839 6.59905C18.8843 6.59905 18.853 6.60494 18.8594 6.61128Z" fill="#E6E7E8"/>
<path d="M8.7078 9.70738C8.44589 9.25425 8.06391 8.75446 7.831 8.17446C7.76348 8.04849 7.69959 7.90168 7.63842 7.76936C7.70322 7.89352 7.77073 8.01224 7.84097 8.12507C8.04352 8.638 8.43411 9.00458 8.69148 9.38249C8.75628 9.47628 8.81292 9.57053 8.85461 9.66886C8.87455 9.73094 8.89675 9.79121 8.91941 9.85147C9.15231 9.85691 9.37253 9.90811 9.57734 9.99375C9.60091 9.99285 9.62447 9.99013 9.64758 9.99013C9.79575 9.99013 9.9403 10.0101 10.0785 10.0431C10.3034 9.99837 10.5361 10.0115 10.7546 10.0812C10.9571 10.1469 11.1615 10.2017 11.3735 10.2307C11.3423 10.2199 11.8208 10.2475 11.8792 10.2475C12.3564 10.2439 12.8335 10.2199 13.3106 10.2258C13.6382 10.2294 13.965 10.233 14.2917 10.2357C14.3388 10.1252 14.3913 10.0101 14.4471 9.88818C14.4135 10.0054 14.3763 10.1216 14.3356 10.2366H14.5015C14.5055 10.2099 14.511 10.1836 14.5141 10.1564C14.5114 10.0359 14.477 9.89271 14.496 9.84604C15.1037 9.54471 15.801 9.12693 15.8268 8.36794C15.8246 8.28863 15.8194 8.20944 15.8114 8.1305L15.8794 8.34393L15.8105 8.12688C15.7489 7.5428 15.5056 6.93154 15.1956 6.38461C15.1245 6.26046 15.0352 6.09189 14.9546 5.9623C14.6682 5.25588 14.5128 4.51502 14.2318 3.7941C14.2282 3.77235 14.2228 3.75014 14.2192 3.72839C14.2092 3.73021 14.2264 3.68353 14.2264 3.68353C13.708 3.57705 13.1525 3.48552 12.6495 3.60968C12.529 3.64465 12.4003 3.63892 12.2834 3.59336C11.5561 3.52494 11.6019 2.36041 11.1071 1.90139C10.5778 1.41791 9.774 1.64402 9.07936 1.54388C8.98602 1.53436 8.89766 1.52938 8.84238 1.52213C8.61762 1.49449 8.39786 1.4963 8.18897 1.57333C8.12508 1.59327 8.04397 1.62635 7.95878 1.6626C7.3303 2.05954 6.54277 2.4755 6.2872 3.25579C6.05067 3.87068 6.20292 4.87163 6.25231 5.70039C6.31167 5.75975 6.39097 5.99493 6.47298 6.11727C6.88352 6.73216 7.45581 7.21564 7.49478 7.79066C7.50113 7.92207 7.49387 8.1074 7.47847 8.23608C7.42545 8.61218 7.36156 9.02452 7.32894 9.4278C7.38286 9.45544 7.43452 9.48444 7.48391 9.51707C7.56048 9.53882 7.63434 9.56555 7.70639 9.59727C7.918 9.61358 8.12191 9.66841 8.30859 9.75405C8.46764 9.75405 8.62261 9.7758 8.77033 9.81432C8.74722 9.77489 8.72547 9.73638 8.7078 9.70738Z" fill="#D1D3D4"/>
<path d="M9.57903 9.99157C9.60169 9.99067 9.6248 9.98795 9.64745 9.98795C9.79562 9.98795 9.94017 10.007 10.0784 10.041C10.3033 9.99619 10.5359 10.0093 10.7544 10.079C10.957 10.1447 11.1613 10.1996 11.3734 10.2286C11.3421 10.2177 11.8206 10.2453 11.8791 10.2453C12.3562 10.2417 12.8334 10.2177 13.3105 10.2236C13.3848 10.2254 13.4578 10.2254 13.5325 10.2263C13.5661 10.0704 13.6019 9.915 13.6381 9.76003C13.8334 9.38846 14.0632 9.00965 14.1329 8.55607C14.1492 8.44234 14.1565 8.32362 14.1538 8.1904C14.1379 8.09706 14.0944 7.9942 14.1035 7.95297C14.5394 7.59364 15.0315 7.12239 14.9594 6.52743C14.9494 6.4666 14.9366 6.40627 14.9209 6.34664C14.9477 6.39784 14.9739 6.44723 14.9984 6.49798C14.9729 6.44661 14.9468 6.39555 14.92 6.34482C14.804 5.90393 14.5412 5.48162 14.2376 5.12229C14.1674 5.04073 14.0777 4.92881 14.0002 4.84498C13.6948 4.35742 13.4886 3.81593 13.1845 3.31568C13.1791 3.29937 13.1728 3.28396 13.1673 3.26856C13.1592 3.27218 13.1673 3.23186 13.1673 3.23186C12.7532 3.25723 12.3114 3.3039 11.9353 3.50645C11.8614 3.54678 11.7767 3.58167 11.6507 3.56943C11.0775 3.67003 10.9765 2.75743 10.5392 2.5055C10.0702 2.24087 9.47345 2.5857 8.92336 2.65321L8.73803 2.68629C8.55905 2.71167 8.38912 2.75925 8.23687 2.86346C8.17857 2.89984 8.12216 2.93916 8.06786 2.98128C7.62697 3.42126 7.066 3.90928 6.95997 4.56812C6.8485 5.09465 7.08412 5.83914 7.22097 6.4717C7.27398 6.50478 7.36325 6.67062 7.44164 6.74901C7.83223 7.13961 8.33203 7.39336 8.43081 7.83153C8.45075 7.93167 8.46751 8.07757 8.47069 8.17998C8.47612 8.69654 8.47159 9.30056 8.58487 9.77589C8.68592 9.79129 8.7838 9.81486 8.8785 9.84793C9.11938 9.8473 9.35783 9.8962 9.57903 9.99157ZM13.9662 8.39295C13.9952 8.27061 14.0319 8.13739 14.07 7.99692C14.053 8.12433 14.0326 8.25125 14.0088 8.37754C13.9494 8.70968 13.8457 9.02551 13.7369 9.33862C13.813 9.02642 13.8896 8.7124 13.9662 8.39295ZM8.53865 7.78531C8.60436 7.86778 8.67006 7.94436 8.73939 8.01731C8.95644 8.37301 9.30308 8.57465 9.54686 8.813C9.60803 8.87326 9.66286 8.93534 9.70681 9.00286C9.85181 9.28198 10.0276 9.52304 10.2207 9.73828C10.0684 9.5815 9.91661 9.42245 9.76753 9.26839C9.75575 9.24211 9.65062 9.12248 9.59942 9.06312C9.34114 8.76587 8.98679 8.45911 8.73712 8.05764C8.66961 7.97426 8.6039 7.87367 8.54001 7.78531" fill="#E6E7E8"/>
<path d="M17.7806 5.19476C17.5617 4.83181 17.3161 4.49106 17.0411 4.20287C17.0094 4.17418 16.9766 4.14681 16.9427 4.12085C16.6654 3.90426 16.4298 3.61335 16.2091 3.32517C16.4298 3.61381 16.6668 3.88749 16.9436 4.10635C16.9994 4.15031 17.0624 4.20106 17.187 4.33428C17.3972 4.61249 17.6016 4.89253 17.7837 5.19204C17.5182 4.89615 17.3147 4.56582 17.0519 4.27673C16.9917 4.23006 16.9205 4.16707 16.8661 4.12176C16.5938 3.89202 16.3469 3.60701 16.23 3.30432C16.1103 2.94499 16.3641 2.62917 16.5961 2.38448C16.5979 2.3591 16.5558 2.29884 16.534 2.2422C16.5169 2.16834 16.5063 2.09314 16.5023 2.01745C16.4851 1.66537 16.6455 1.37129 16.7193 1.07404C16.6799 1.42249 16.5961 1.76007 16.6024 2.11985C16.6033 2.1919 16.6051 2.27301 16.6115 2.35593C16.6183 2.26757 16.6242 2.18374 16.6287 2.10671C16.6595 1.41706 16.698 0.761837 16.6709 0.0481655C16.6749 -0.203772 16.9654 -0.179756 17.0873 0.028228C17.1484 0.145134 17.0624 0.325931 17.1235 0.391634C17.2268 0.494041 17.4158 0.414291 17.5504 0.465494C17.6124 0.489962 17.6763 0.510353 17.7402 0.528478C17.9319 0.583306 18.1299 0.620916 18.3062 0.715619C18.6365 0.900947 18.9868 1.14156 19.2623 1.49409C19.2985 1.53306 19.3407 1.56704 19.3878 1.59967C19.5722 1.73288 19.8187 1.8362 20.0013 2.04146C20.0543 2.08134 20.106 2.12529 20.1576 2.17196C20.1064 2.12167 20.0521 2.06321 19.9977 2.01609C19.7897 1.78635 19.5251 1.61824 19.3244 1.45195C19.284 1.41706 19.2016 1.35181 19.1911 1.33504C18.9025 1.12071 18.6148 0.895056 18.3062 0.690697C18.6002 0.692049 18.8942 0.682678 19.1875 0.662603C19.2713 0.643572 19.3334 0.624994 19.3629 0.612306C19.4798 0.557478 19.618 0.575603 19.7403 0.725587C19.966 1.01015 20.0616 1.51493 20.1518 1.92637C20.1663 1.98935 20.1948 2.07681 20.2202 2.13707C20.338 2.39898 20.6892 2.52676 20.9864 2.7429C21.0449 2.78595 21.1237 2.88246 21.1618 2.89877C21.3281 3.27849 21.5705 3.71984 21.5673 4.04699C21.5818 4.45571 21.2864 4.78604 21.0607 5.08012C21.0272 5.11184 20.995 5.1422 20.9687 5.16213C20.8845 5.23328 20.7825 5.27179 20.6733 5.29807C20.6452 5.30442 20.6022 5.31665 20.5582 5.32798C20.2161 5.40184 19.8794 5.64562 19.5486 5.51059C19.2383 5.38099 19.0588 4.82999 18.7076 4.92379C18.6453 4.9223 18.5843 4.94159 18.5341 4.97862C18.3207 5.12362 18.0452 5.17663 17.7842 5.21651C17.7842 5.21696 17.7842 5.19113 17.7806 5.19385" fill="#D1D3D4"/>
<path d="M18.3506 5.22774C18.1403 4.97852 17.9142 4.75423 17.6713 4.57524C17.6442 4.55854 17.6162 4.54327 17.5875 4.52948C17.3537 4.41076 17.1403 4.22316 16.9373 4.03512C17.1398 4.22316 17.3519 4.39626 17.5875 4.51769C17.6342 4.54126 17.6877 4.5698 17.7982 4.65363C17.9908 4.83624 18.1788 5.02066 18.3542 5.22502C18.1172 5.0406 17.9237 4.81449 17.6899 4.6346C17.6387 4.60787 17.5785 4.57162 17.5309 4.54624C17.2989 4.41483 17.0778 4.23585 16.9522 4.01427C16.8154 3.74829 16.9649 3.44379 17.1058 3.20001C17.104 3.18007 17.0655 3.13883 17.0415 3.09896C17.0185 3.04228 17.0009 2.98357 16.9889 2.9236C16.9305 2.64266 17.0125 2.37441 17.0284 2.12066C17.0438 2.4093 17.0252 2.69749 17.0764 2.98568C17.0873 3.04413 17.0981 3.10802 17.1136 3.17463C17.1072 3.10168 17.1013 3.03326 17.0945 2.97118C17.0284 2.4093 16.9722 1.87326 16.8607 1.30504C16.8299 1.10068 17.0506 1.06126 17.1675 1.20444C17.2277 1.28646 17.1874 1.44913 17.2422 1.48991C17.3315 1.55108 17.4611 1.45094 17.5698 1.46454C17.6192 1.47269 17.6695 1.47632 17.7207 1.47813C17.8703 1.48357 18.0216 1.47451 18.1657 1.51619C18.434 1.59821 18.7276 1.72237 18.9777 1.9521C19.0108 1.97566 19.047 1.99605 19.0856 2.01237C19.2405 2.08169 19.4367 2.11613 19.6003 2.24391C19.6452 2.26748 19.6896 2.2924 19.7335 2.31868C19.6887 2.28877 19.6406 2.25298 19.5944 2.22579C19.4086 2.08169 19.1911 1.99923 19.0194 1.90452C18.9799 1.88436 18.9415 1.86212 18.9043 1.83791C18.6619 1.72191 18.419 1.59776 18.1616 1.4958C18.3816 1.43743 18.5994 1.37108 18.8146 1.29688C18.8582 1.27578 18.8997 1.25075 18.9387 1.22212C19.0189 1.1546 19.1245 1.14191 19.2351 1.23662C19.4385 1.42104 19.5772 1.80982 19.6977 2.12383C19.7158 2.17096 19.7485 2.23621 19.7752 2.2788C19.8966 2.46685 20.174 2.49948 20.4241 2.61457C20.4739 2.63723 20.5446 2.6993 20.5754 2.70565C20.7481 2.97752 20.986 3.28429 21.0263 3.54982C21.0893 3.87562 20.9112 4.20051 20.7807 4.48144C20.763 4.51094 20.7438 4.53952 20.7231 4.56708C20.6687 4.63769 20.599 4.69501 20.5192 4.73474C20.4998 4.74562 20.4698 4.76374 20.4386 4.78232C20.1921 4.90919 19.9732 5.17291 19.7086 5.13077C19.4626 5.08818 19.2559 4.67991 19.0058 4.82446C18.9577 4.83687 18.9148 4.86434 18.8835 4.90285C18.7425 5.0628 18.545 5.16023 18.3551 5.24405C18.3569 5.24496 18.3542 5.22502 18.3506 5.22774Z" fill="#E6E7E8"/>
<path d="M15.8865 7.57043C15.8937 7.97371 16.0269 8.40644 16.2077 8.79704C16.2499 8.8863 16.3015 9.00683 16.3482 9.09972C16.4615 9.46087 16.5254 9.83152 16.6092 10.2022C17.1123 10.1836 17.615 10.1532 18.1167 10.1111C18.5816 10.0681 19.1331 10.0033 19.4344 9.93574C19.9233 9.82608 20.4159 9.69649 20.8794 9.5021C20.7172 9.56508 21.1912 9.30952 21.241 9.28324C21.4454 9.17449 21.6475 9.08341 21.8677 9.02405C21.6964 8.76758 21.5496 8.52833 21.5532 8.27504C21.5569 8.18441 21.5714 8.05844 21.5904 7.97235C21.7191 7.4064 21.8926 6.71855 21.7775 6.23099C21.7114 5.97362 21.5496 5.87076 21.3706 5.87076C21.3267 5.87076 21.2374 5.85716 21.1228 5.83179C20.7358 5.68769 20.3706 5.51958 20.0054 5.35147C20.0951 5.49829 20.1789 5.64601 20.2618 5.79418C20.1763 5.6541 20.0858 5.51716 19.9904 5.38365C19.8264 5.16297 19.6021 5.00121 19.3941 4.82041C19.3238 4.76078 19.2568 4.6974 19.1934 4.63055C19.0538 4.48827 18.7733 4.4774 18.7044 4.28935C18.6659 4.17063 18.878 3.99572 18.8703 3.81493C18.8395 3.48369 18.4906 3.28568 18.3383 3.59788C18.1203 4.10696 17.8839 4.608 17.6296 5.09999C17.3922 5.35193 17.1276 5.59933 16.9794 5.95866C16.9431 6.04883 16.9132 6.1458 16.8883 6.25727C16.8829 6.34019 16.8983 6.43988 16.8838 6.47069C16.4501 6.64197 15.9499 6.88666 15.8901 7.40504C15.8865 7.45987 15.8846 7.51379 15.8865 7.56816C15.8738 7.51826 15.8622 7.4681 15.8516 7.41773C15.8624 7.46802 15.8733 7.51923 15.8865 7.57043ZM20.7353 6.67233C20.739 6.69816 20.8029 6.83047 20.8341 6.89527C20.9873 7.22197 21.2193 7.58448 21.3462 7.99365C21.3851 8.08337 21.42 8.18804 21.4535 8.28138C21.4176 8.19502 21.3783 8.11007 21.3357 8.02672C21.2265 7.66558 20.98 7.39144 20.8255 7.12047C20.7868 7.05527 20.755 6.98617 20.7308 6.9143C20.6672 6.6482 20.5739 6.39011 20.4526 6.1449C20.5473 6.32161 20.6406 6.49879 20.7353 6.67415M17.0451 6.1449C17.162 5.88571 17.3097 5.65235 17.4611 5.42307C17.3374 5.66322 17.2109 5.90202 17.0832 6.1449C17.0305 6.24645 16.9759 6.34691 16.9191 6.44622C16.9604 6.33838 17.0048 6.23597 17.0451 6.1449Z" fill="#D1D3D4"/>
</g>
<defs>
<clipPath id="clip0_350_156">
<rect width="29" height="29" fill="white"/>
</clipPath>
</defs>
</svg>
